<?xml version="1.0" encoding="utf-8" ?><svg xmlns="http://www.w3.org/2000/svg" xmlns:xlink="http://www.w3.org/1999/xlink" width="1024" height="1024" viewBox="0 0 1024 1024"><path fill="#384D48" d="M495.161 0L529.328 0C538.024 1.80642 551.354 1.38682 560.668 2.30954C582.009 4.50326 603.203 7.95523 624.137 12.6474C749.588 41.1877 859.746 115.799 932.795 221.705C975.418 282.921 1004.06 352.758 1016.71 426.271C1018.89 440.069 1020.62 453.935 1021.89 467.848C1022.23 471.898 1023.29 491.677 1024 494.205L1024 528.908C1023.97 529.048 1023.94 529.188 1023.91 529.328C1018.04 658.418 966.636 780.322 875.105 872.108C797.095 950.336 704.523 997.796 596.671 1018.8C596.067 1021.07 596.016 1021.64 595.926 1024L427.927 1024C427.387 1022.26 427.37 1020.78 427.227 1018.97C421.372 1017.3 414.612 1016.25 408.575 1014.87C397.228 1012.22 385.944 1009.3 374.73 1006.13C318.278 989.891 264.988 964.197 217.125 930.143C112.226 855.867 38.8646 745.077 11.4312 619.506C7.16688 600.107 4.18889 580.447 2.51674 560.654C1.65826 551.177 1.66407 538.201 0 529.265L0 494.671C1.05582 490.182 1.39793 476.631 1.75189 471.5C2.71155 458.325 4.22228 445.196 6.28011 432.147C18.1604 357.371 46.5961 286.195 89.5095 223.817C164.189 114.684 277.953 38.4246 407.276 10.8094C425.911 6.85878 444.768 4.03408 463.743 2.35064C472.796 1.58536 486.756 1.71848 495.161 0Z"/><path fill="#FEFDFE" d="M427.536 495.491L427.466 412.882C427.451 395.374 427.096 377.792 428.054 360.582C434.328 247.895 520.98 178.826 631.43 183.343C658.834 184.464 686.995 185.694 714.466 189.975C720.509 190.794 733.508 192.139 738.911 193.717C739.047 237.11 738.936 280.504 738.576 323.895L692.94 323.932C665.521 323.952 633.865 321.427 612.799 342.474C591.978 363.276 596.138 397.911 596.203 425.229L596.123 495.415C623.113 495.255 650.103 495.232 677.094 495.344C694.632 495.367 713.85 495.032 731.236 495.562C726.8 524.829 722.135 554.062 717.242 583.256C714.277 601.548 711.536 620.629 708.263 638.8C671.317 639.406 633.442 638.984 596.416 638.974L596.435 902.54L596.463 981.106L596.449 1005C596.447 1008.67 596.267 1015.33 596.671 1018.8C596.067 1021.07 596.016 1021.64 595.926 1024L427.927 1024C427.387 1022.26 427.37 1020.78 427.227 1018.97C428.142 1010.74 427.51 989.271 427.508 979.859L427.515 900.188L427.618 638.88C385.894 639.318 341.274 639.491 299.582 638.936L299.523 495.463L427.536 495.491Z"/></svg>