<?xml version="1.0" encoding="utf-8" ?><svg xmlns="http://www.w3.org/2000/svg" xmlns:xlink="http://www.w3.org/1999/xlink" width="1024" height="1024" viewBox="0 0 1024 1024"><path fill="white" d="M493.577 0L531.776 0C534.616 1.0438 538.933 1.12727 542.044 1.23787C551.151 1.5617 559.816 2.15153 568.861 3.28558C593.504 6.1668 617.917 10.7627 641.92 17.0398C762.857 49.0879 867.911 124.232 937.311 228.329C987.876 304.241 1017.08 388.341 1022.75 478.966C1022.99 482.704 1023.1 488.128 1024 491.683L1024 534.455C1023.31 536.834 1022.33 553.517 1021.95 557.296C1020.55 571.913 1018.56 586.465 1015.96 600.918C1003.67 669.23 977.763 734.372 939.782 792.467C883.435 880.289 791.272 953.889 694.012 990.965C659.369 1004.17 631.708 1011.26 596.012 1019.07C595.368 971.832 595.958 923.173 595.957 875.836L596.014 638.916L683.458 638.977C691.976 638.955 699.654 637.69 707.819 637.979C710.377 626.859 712.674 609.722 714.491 598.253L725.525 528.764C727.076 519.047 728.748 505.398 730.996 496.043L596.025 496.016L595.017 401.247C594.776 327.187 634.151 322.939 696.212 322.927L737.991 322.95L737.907 193.86C730.19 192.059 718.361 190.908 710.364 189.859C683.757 186.371 655.865 184.348 629.026 183.994C620.298 184.187 611.271 183.635 602.582 184.275C545.244 188.502 490.444 215.841 458.723 264.891C439.159 295.14 429.429 330.046 428.175 365.996C427.658 380.8 428.042 395.944 428.045 410.706L428.096 496.029L300.016 496.023C300.856 542.763 300.059 592.018 300.094 638.984L399.413 638.959C402.289 638.958 426.422 638.388 426.956 638.621C428.885 641.627 428.08 678.22 428.073 685.185L428.052 766.186L428.062 1019.11C409.9 1014.62 393.527 1011.38 374.982 1006.13C331.244 993.567 289.341 975.321 250.346 951.862C132.889 881.499 48.2221 767.329 14.9942 634.503C9.33608 612.036 5.34255 589.184 3.04612 566.13C2.05057 557.008 2.13283 539.383 0 531.786L0 493.105C1.05308 489.048 1.50762 473.884 1.89271 468.631C2.79405 456.891 4.16198 445.192 5.99326 433.561C16.3873 367.752 39.5136 304.603 74.0775 247.646C144.741 131.078 258.713 47.2577 391.04 14.5358C414.146 8.91214 437.615 4.90495 461.278 2.54328C470.36 1.58161 485.393 2.28134 493.577 0Z"/></svg>