<?xml version="1.0" encoding="utf-8" ?><svg xmlns="http://www.w3.org/2000/svg" xmlns:xlink="http://www.w3.org/1999/xlink" width="1024" height="1024" viewBox="0 0 1024 1024"><path transform="scale(0.5 0.5)" d="M993.467 0L1054.53 0L1055.56 0.139897C1071.53 2.17702 1096.04 2.34347 1113.27 3.80585C1150.4 7.12771 1187.32 12.4388 1223.89 19.7163C1464.83 68.4342 1680.33 201.9 1831.29 395.902C1936.5 530.317 2006.32 688.98 2034.33 857.361C2039.11 886.034 2042.62 914.903 2044.86 943.885C2045.43 951.96 2046.77 988.228 2048 994.147L2048 1052.87L2047.86 1053.85C2045.82 1069.01 2045.89 1093.59 2044.49 1110.17C2041.12 1148.88 2035.64 1187.39 2028.09 1225.51C1978.98 1468.59 1843.56 1685.68 1646.86 1836.7C1530.57 1926.45 1396.61 1990.6 1253.79 2024.96C1237.35 2028.89 1211.01 2035.56 1193.8 2036.94C1192.13 2037.08 1190.33 2035.62 1189.02 2034.59C1193.93 2031.24 1194.76 2034.58 1197.84 2031.01C1198.92 1947.45 1198.02 1861.79 1198.01 1778.07L1198 1310L1347.09 1310.04C1366.94 1310.04 1403.68 1311.17 1422.5 1309.62C1424.43 1306.17 1433.6 1244.02 1435.01 1235.28L1468.84 1025.21C1466.56 1023.15 1222.52 1023.99 1198 1024L1197.95 875.077C1197.96 823.29 1191.41 758.207 1231.78 718.184C1273.76 676.555 1337.94 680.67 1392.58 680.661L1484 680.693L1484.02 512.572C1484.02 483.891 1485.05 448.82 1483.52 421.007C1479.5 418.519 1441.35 414.2 1434.76 413.411C1337.89 401.825 1239.45 389.989 1143.33 412.694C1049.61 434.833 970.16 486.204 919.147 568.913C882.753 627.921 864.16 700.677 861.305 769.563C860.073 799.277 860.899 835.282 860.906 865.368L860.96 1024L604.96 1024L605 1310L861 1310L861 2032.8L855.014 2037.7C580.022 1988.62 336.22 1831.26 178.244 1600.88C91.7342 1474.65 34.8228 1330.53 11.7498 1179.26C7.63122 1152.52 4.63167 1125.63 2.75899 1098.64C2.12877 1089.45 1.28977 1060.27 0 1053.49L0 993.504C1.63554 983.453 2.06859 958.816 2.92855 946.894C4.98202 918.702 8.26818 890.613 12.7776 862.708C40.3086 691.541 111.022 530.219 218.238 393.98C369.051 201.136 583.75 68.4592 823.686 19.8342C859.775 12.5927 896.231 7.32207 932.893 4.04562C950.242 2.57142 976.509 2.15728 992.435 0.138909L993.467 0Z"/></svg>