<?xml version="1.0" encoding="utf-8" ?><svg xmlns="http://www.w3.org/2000/svg" xmlns:xlink="http://www.w3.org/1999/xlink" width="1503" height="1169" viewBox="0 0 1503 1169"><path fill="white" transform="scale(1.30469 1.30469)" d="M840.288 0L855.469 0C841.146 7.25784 814.555 18.5544 808.654 33.0477C801.994 37.4839 794.629 40.3515 790.999 48.013C788.126 54.0751 785.749 60.7339 784.094 67.232C793.523 63.2776 794.662 59.0712 802.596 52.95C803.888 51.9537 808.101 50.1534 809.758 49.4357C816.089 38.8048 815.578 40.1081 825.343 32.6653C835.218 25.1386 844.475 15.8814 857.253 12.7084C862.576 11.4612 879.579 10.3859 885.156 11.7997C888.39 12.6196 892.452 14.6079 897.325 15.5178C891.624 5.60317 885.108 4.08214 874.594 0L887.101 0C889.78 1.86683 901.336 9.66872 902.956 12.3733C909.171 22.8019 915.986 33.2631 921.327 44.163C922.383 46.318 923.697 54.4813 924.608 55.627C930.049 62.4756 938.759 78.2391 945.479 82.437C946.496 84.9079 948.85 91.6125 950.47 93.1204C955.411 97.718 957.25 94.4797 961.104 101.103C963.965 101.806 964.983 100.994 967.534 101.245C968.792 101.369 970.859 103.836 972.856 104.393C989.34 108.992 1000.04 109.872 1011.25 124.066C1014.23 120.973 1015.87 120.12 1019.88 118.459C1022.58 122.665 1026.51 132.08 1030.12 132.922C1032.18 133.401 1032.9 136.131 1035.16 136.313C1035.81 133.708 1031.71 122.588 1030.68 119.904C1027.41 111.382 1020.12 101.323 1012.48 96.2269C1012.38 95.123 1012.71 94.7223 1013.17 93.6944C1040.33 112 1035.52 137.812 1045.02 164.331C1048.28 173.432 1064.9 180.373 1067.67 190.662C1071.88 201.738 1063.03 211.224 1065.58 217.535C1065.18 219.639 1064.76 220.706 1064.01 222.725C1061.83 224.014 1059.92 224.861 1058.5 226.895C1059.74 228.961 1060.07 230.449 1058.71 232.613L1057.57 232.78L1056.17 231.475C1054.54 235.134 1053.59 235.967 1050.34 238.348C1056.37 226.532 1066.93 206.214 1063.28 192.547C1062.56 189.862 1059.07 184.479 1056.1 184.057C1053.79 186.202 1055.85 188.661 1056.4 191.432C1057.45 196.738 1057.89 202.078 1056.71 207.4C1055.67 214.832 1044.93 227.297 1046.43 233.006C1048.76 234.966 1049.52 234.677 1050.32 236.995C1049.27 240.898 1042.7 250.503 1039.88 254.03C1036.04 258.835 1033.53 265.457 1029.84 269.708C1020.27 280.721 1005.4 286.321 994.254 295.312C991.009 297.93 988.826 305.286 986.689 308.804C982.489 316.593 969.126 323.422 961.665 328.1C953.376 333.296 943.009 337.595 934.77 342.681C929.914 345.678 924.344 351.2 919.347 354.702C917.711 361.095 914.878 365.55 912.604 371.611C911.499 374.557 910.976 379.122 910.346 382.434C901.75 386.824 900.583 392.697 896.042 400.615C888.422 413.906 882.02 427.83 874.924 441.394C873.452 444.232 872.399 447.251 870.771 450.003C868.378 454.051 864.54 457.278 861.856 461.08C862.671 463.381 863.615 465.779 864.116 468.151C858.308 475.416 849.796 485.162 843.394 491.864C850.727 497.567 853.852 499.482 856.602 508.569C853.479 519.094 855.588 522.234 853.502 530.597C857.632 534.315 861.957 537.809 866.459 541.065C869.315 540.049 872.308 538.927 875.17 537.98C886.831 541.112 896.981 547.174 903.088 557.843C904.74 560.764 906.127 563.826 907.233 566.995C909.887 574.538 911.116 583.514 914.188 591.091C914.872 592.778 910.459 602.21 910.558 606.299C911.369 606.018 911.411 606.002 912.14 605.647C912.574 607.45 908.267 637.028 906.969 640.634C906.114 643.01 910.346 646.85 908.608 648.558C903.184 653.888 894.064 661.644 888.489 666.54C889.781 668.611 890.966 670.417 891.974 672.658C883.604 683.89 891.888 681.357 893.812 686.156C893.286 688.798 892.564 688.757 890.719 690.584C893.234 693.523 896.114 697.413 898.872 699.99C900.82 701.81 904.184 699.009 904.415 705.253C904.504 707.651 902.678 708.57 900.859 709.663C899.356 713.8 898.183 721.303 896.723 724.05C895.7 724.429 894.685 724.831 893.681 725.257C893.555 725.771 893.398 726.41 893.211 727.173C890.245 729.405 886.338 731.811 883.259 733.703C877.205 737.424 873.757 738.932 866.976 740.267C863.067 754.255 857.101 746.586 850.639 748.801C842.584 751.562 823.739 756.393 817.782 761.062C812.485 760.463 801.197 764.975 795.833 766.859C790.996 768.558 785.065 774.092 780.66 776.843C773.101 780.984 763.825 786.916 756.312 790.533C751.869 792.672 739.725 795.354 734.45 797.323C732.392 798.091 729.847 798.066 726.352 799.422L725.724 799.117C720.962 796.853 717.528 797.249 713.524 795.422C710.107 793.862 707.37 790.003 703.181 788.706C696.193 786.544 687.819 785.748 681.196 783.009C677.241 781.373 672.527 776.207 668.646 773.88C656.959 766.873 637.293 760.307 632.19 746.482C629.45 739.059 630.456 731.418 629.678 723.933C623.711 717.702 615.573 710.88 610.977 704.004C601.758 709.399 593.209 715.535 583.858 721.153C559.531 735.768 531.445 741.739 503.284 738.007C495.941 737.033 499.869 742.874 493.083 741.052C487.947 739.603 482.933 735.754 477.724 733.815C484.434 741.412 487.901 748.022 493.007 756.658C515.262 764.344 541.375 752.869 564.244 753.083C573.036 753.165 592.144 753.73 598.281 760.058C598.778 762.237 598.683 762.612 598.541 764.892L599.56 766.167C600.943 766.275 602.688 766.405 603.779 765.777C606.289 764.332 612.564 767.922 615.79 769.401C619.226 774.021 619.328 777.897 622.063 782.21C626.858 789.768 637.755 791.489 632.173 803.01C638.229 806.175 647.623 808.045 649.416 814.893C650.087 817.453 650.74 819.799 649.024 822.025C646.126 822.673 644.881 820.907 643.291 818.591C642.744 819.771 641.376 822.804 640.456 823.523C635.022 827.767 624.244 830.317 617.827 833.365C613.688 835.331 599.479 836.617 594.766 836.518C592.254 843.405 591.443 841.644 585.024 842.944C583.469 843.258 576.197 849.412 574.681 850.961C569.032 850.673 566.774 851.584 561.519 852.179C547.075 853.813 539.375 855.363 524.709 855.05C516.558 849.413 511.004 852.292 500.878 852.562C494.081 848.258 486.357 849.158 478.981 850.949C465.502 854.221 453.496 851.969 440.82 858.978C437.874 860.606 427.33 861.703 423.758 863.552C408.816 871.194 394.107 876.814 378.137 881.992C369.565 884.771 361.254 890.103 352.095 891.905C345.056 893.683 342.093 894.347 334.689 894.73C329.827 894.981 317.856 894.587 313.982 896L313.621 896L291.548 896C288.796 894.295 287.475 893.285 284.958 891.229C282.007 890.404 278.248 890.34 275.127 890.162L275.582 889.288C275.15 888.128 274.844 887.395 273.372 887.101C251.424 882.72 227.158 880.037 208.875 866.039C205.761 863.684 200.821 857.727 197.359 856.332C182.746 850.448 172.198 847.827 160.386 836.553C156.095 832.458 146.311 828.362 141.2 823.433C135.493 817.927 130.986 813.038 126.349 806.465C119.223 797.936 112.381 789.026 106.066 779.895C101.688 773.566 104.521 765.759 98.3813 760.293C95.9895 758.163 99.0321 752.829 99.6153 749.63C98.5737 746.841 95.3575 744.753 94.3556 742.684C92.7378 739.721 90.7117 729.546 87.7932 727.565C82.5758 724.023 81.9146 722.904 77.8854 717.82C68.9693 706.57 67.1449 694.512 65.5226 680.712C64.0391 679.727 59.4975 676.147 59.1075 674.566C66.3541 670.98 62.7807 662.63 61.815 655.475C59.4146 637.692 62.3451 611.992 78.8663 601.371C90.7194 593.751 87.3904 596.36 95.5566 584.617C94.0181 583.51 92.1596 581.915 90.6487 580.696C87.7551 581.492 84.609 582.159 81.6674 582.834C80.0494 572.897 78.5455 562.661 78.6307 552.603C78.6645 548.618 79.1067 544.98 78.3468 541.013C80.2166 538.396 82.6204 535.824 82.4052 532.705C78.2919 527.912 86.3984 525.498 88.16 522.163C87.5148 518.773 87.2738 518.308 89.1566 515.328C92.8437 509.493 94.0692 503.168 95.7991 496.451C98.5389 485.812 102.233 475.067 109.105 466.296C112.252 462.281 116.859 459.355 119.53 455.043C120.853 452.906 119.359 452.1 120.015 450.108L121.535 449.457C124.355 450.411 122.72 450.752 125.243 452.62C127.154 449.741 123.778 445.148 128.955 442.786C131.19 443.055 132.579 444.787 134.637 446.332L135.52 445.965C138.685 436.637 127.062 408.536 132.394 402.961C134.492 402.502 136.053 403.183 138.175 403.762C145.141 400.727 145.825 399.289 151.853 395.044C151.701 394.594 151.555 394.143 151.415 393.69C150.625 391.122 150.412 390.236 151.552 388.111C153.338 387.341 153.254 387.408 155.209 387.753C156.909 389.479 156.683 390.962 156.962 393.664L157.733 394.177C159.092 393.886 164.847 392.692 165.593 391.99C170.479 387.393 175.148 381.99 179.875 377.194C182.706 374.322 185.619 371.952 188.372 369.102C189.598 367.832 190.637 365.564 191.414 363.994C194.011 358.747 194.559 348.304 197.451 343.7C200.459 338.914 207.566 334.585 212.015 329.736C211.844 328.145 211.648 326.264 212.018 324.696C213.606 317.966 242.077 301.094 249.075 297.241C256.108 293.37 263.483 290.153 270.549 286.351C275.254 283.819 279.759 280.83 284.574 278.515C297.835 272.141 311.834 266.941 325.256 260.832C328.955 259.148 332.167 256.511 335.899 254.98C351.937 248.399 370.605 243.327 387.441 239.338C398.513 236.715 408.352 236.242 419.586 235.582C423.447 235.356 427.314 234.804 431.172 234.662C435.654 234.498 440.172 235.11 444.643 234.589C451.159 233.83 463.788 230.471 469.299 227.059C473.35 227.532 474.829 228.118 478.715 226.359C484.267 223.847 489.015 223.838 494.881 224.285C503.045 218.591 507.81 225.934 512.991 215.956C516.125 216.945 519.107 217.514 522.318 218.184C522.174 216.309 522.142 215.041 522.18 213.16C523.22 211.47 522.505 211.986 524.327 211.467C525.608 211.997 525.865 212.857 526.591 214.118L526.902 214.666C532.217 211.833 537.917 212.004 543.578 210.489C548.008 209.304 552.469 207.107 556.877 205.861C561.304 204.609 566.255 203.891 570.675 202.737C573.611 201.971 577.652 198.441 580.433 197.011C581.751 196.334 584.461 197.23 585.978 196.781C587.707 196.268 593.348 192.324 594.639 191.95C601.785 189.879 608.808 188.424 615.784 185.556C618.61 184.394 620.477 181.843 623.02 180.398C624.99 179.278 629.228 179.068 630.937 177.741C629.655 175.448 628.55 174.301 629.804 171.897C633.388 170.068 638.388 171.309 642.496 171.874C645.339 170.194 648.04 168.786 650.734 166.894C657.443 162.183 658.023 157.457 666.035 155.815C671.752 149.004 682.485 146.141 688.625 138.475C691.535 134.842 695.898 130.974 700.186 129.18C702.045 124.077 717.927 103.767 722.72 105.723C723.723 112.423 703.543 128.397 701.974 134.126L702.465 134.937C705.512 134.512 708.716 135.209 711.789 135.689C716.301 131.891 723.325 127.286 728.373 123.481C728.527 120.694 728.409 118.606 730.159 116.498C732.275 115.203 734.326 115.345 736.864 115.178C741.788 108.426 746.984 108.453 750.831 103.83C759.614 93.2713 768.013 84.5398 777.671 74.8521C777.724 73.21 777.812 71.5691 777.933 69.9306C778.862 57.8821 781.055 51.986 790.021 44.2673C791.895 27.3726 825.933 6.69202 840.288 0ZM618.23 202.297C611.002 207.746 601.411 212.725 595.054 218.457C591.645 221.531 577.672 231.396 576.201 233.545C576.183 235.391 576.546 236.17 575.631 237.241C565.89 238.542 564.565 239.907 556.177 243.723C552.398 245.443 528.778 254.757 525.834 254.166C524.519 252.759 524.892 253.433 524.651 251.321C527.275 243.907 559.655 237.379 562.719 231.192C558.756 229.781 552.171 234.303 547.942 235.241C543.985 236.119 539.771 236.207 535.901 237.348C533.553 238.04 531.292 239.183 529.088 240.23C523.946 242.675 518.854 245.623 513.259 246.892C502.414 249.352 489.93 248.616 478.805 250.51C475.214 251.121 416.543 267.791 416.363 267.945C416.176 268.106 416.145 268.389 416.036 268.61L416.077 268.026C418.204 270.205 421.386 268.318 423.92 269.803C422.74 271.42 413.961 274.656 412.016 274.506C400.273 273.597 396.756 276.099 386.085 280.4C357.283 292.294 329.409 306.319 302.694 322.358C295.919 326.41 290.355 331.19 283.81 334.921C283.003 336.717 282.489 338.541 280.931 339.563C276.826 339.783 275.615 336.787 272.721 340.184C271.498 341.62 270.814 343.602 269.211 344.242L267.257 343.485C257.421 349.159 247.804 357.683 243.484 368.41L243.661 369.35C249.272 369.687 260.562 356.241 264.652 360.385C264.727 361.79 264.711 364.003 263.599 364.905C256.504 370.663 245.097 380.27 237.704 384.985C235.721 390.685 234.639 396.382 228.625 399.138C230.421 400.429 231.201 400.727 232.056 402.654C232.018 404.872 232.363 403.915 231.02 405.641C227.501 406.726 226.405 405.848 225.214 402.441C223.61 404.326 223.381 404.512 222.109 406.607C220.62 409.06 216.845 411.639 214.642 414.103C203.958 426.053 191.753 436.195 180.856 447.988C178.182 450.882 174.624 452.576 171.846 455.494C151.796 456.089 135.33 479.368 119.932 490.959C118.902 496.111 117.533 500.064 116.127 505.072C114.819 509.73 115.06 515.367 113.14 519.613L113.466 520.372C116.331 527.123 115.887 532.741 118.237 539.314C118.635 539.871 119.783 540.458 120.315 540.663C126.023 542.859 138.498 542.496 143.835 544.895C149.637 547.502 144.976 551.55 156.239 547.858C162.418 549.745 163.437 550.058 169.736 549.297C167.076 547.511 166.21 545.413 167.769 542.491C174.544 538.312 175.146 547.887 177.795 549.848L178.773 549.879C180.6 547.593 182.1 544.923 185.498 546.124L185.699 546.894C183.652 549.875 181.95 551.706 180.121 554.9C177.14 552.87 175.752 551.943 172.516 550.431C170.061 551.653 167.453 554.334 168.526 557.201C173.301 559.741 177.821 553.808 178.418 558.808C181.476 561.943 188.59 562 193.044 562.48C195.174 561.039 199.275 557.954 201.84 558.092C203.325 560.447 201.118 563.82 203.826 565.726C208.541 565.648 206.101 557.174 212.684 562.191C212.88 562.34 213.17 562.806 213.349 563.067C212.81 568.602 201.997 571.442 210.909 576.632L211.919 576.441C212.449 575.267 212.959 574.125 213.537 572.972C213.19 571.058 213.128 570.966 213.866 569.241C216.232 567.542 218.107 567.542 219.638 570.219C219.47 571.916 219.737 571.619 218.884 572.858L216.524 574.061L216.498 574.735C224.77 578.441 219.954 577.913 223.152 582.094C231.679 581.775 238.401 579.408 247.203 580.963C250.547 581.554 251.739 585.124 255.086 583.555C250.207 575.624 242.203 565.521 242.248 556.013C242.26 553.412 247.042 553.338 248.734 554.377C267.598 565.957 277.801 582.206 300.848 587.233C299.406 585.587 293.987 580.461 297.87 577.981C299.302 577.067 299.855 577.184 301.385 577.624C303.578 580.346 304.539 588.055 308.5 587.751C330.179 586.087 352.044 589.613 373.274 593.713C375.248 594.094 381.227 597.308 383.263 598.337C385.606 598.4 386.267 598.226 388.209 599.349L388.897 600.57C388.13 602.32 388.743 601.661 386.878 602.495C384.298 601.992 383.92 601.607 382.911 599.226C381.057 599.542 377.045 600.693 375.788 600.554C365.153 599.373 332.319 591.058 323.552 594.72C323.932 600.267 323.258 601.331 318.231 602.67C330.426 614.714 360.713 626.789 376.16 636.116C389.166 643.968 400.38 652.597 413.713 660.131C415.44 658.78 416.304 657.824 418.448 657.481C422.861 659.116 420.331 667.121 425.7 668.774C432.793 670.957 440.255 665.714 446.305 663.61C452.878 661.325 463.044 651.78 469.172 652.992C473.056 655.987 469.96 660.279 467.789 663.396C464.269 668.179 460.334 671.76 457.404 675.728C461.793 673.01 465.488 670.312 469.659 667.29C475.909 663.354 482.224 658.52 488.412 654.456C489.44 653.78 491.269 653.819 492.285 654.426C494.041 655.475 493.946 655.681 494.592 657.386C494.104 667.202 464.873 683.617 461.619 690.065L462.408 690.474C471.418 688.97 475.155 684.295 482.821 679.675C497.369 670.906 510.978 660.535 525.132 651.287C527.51 649.733 530.573 650.356 531.805 653.171C530.305 659.359 521.369 662.87 517.049 666.682C503.188 678.913 483.175 687.242 470.612 700.588C476.485 698.514 482.21 695.158 487.528 691.932C493.737 688.166 524.985 666.165 529.831 666.561C531.074 666.663 531.271 667.124 532.066 667.993C534.905 677.886 506.176 686.824 503.929 692.733L504.425 693.233C512.133 691.346 535.455 674.898 544.323 670.941C548.009 669.296 561.154 659.438 561.036 670.162C559.423 673.508 545.956 680.593 540.575 685.595C546.326 684.468 570.365 670.866 573.854 667.356C574.105 665.563 574.265 664.873 574.804 663.144L575.543 663.022L577.693 665.503L578.255 665.019C578.255 663.461 576.555 661.689 575.523 660.336L575.441 660.52C572.055 657.816 572.487 651.242 572.533 647.409C570.485 647.757 568.217 648.336 566.493 647.324C565.615 645.881 565.742 645.811 565.793 644.165C567.534 641.949 567.727 643.09 570.535 641.426C570.959 638.045 568.94 615.8 568.345 612.057C564.238 606.452 560.886 605.793 556.986 598.381C558.969 586.005 568.696 567.384 575.199 556.247C571.704 558.266 564.343 562.491 561.698 565.277C554.589 572.762 547.747 579.514 539.489 585.836C538.444 586.636 537.185 586.207 536.093 585.959C533.114 582.596 540.394 577.492 543.027 574.783C524.89 581.124 515.161 579.424 497.918 583.186C491.526 584.574 485.317 586.7 479.417 589.524C472.314 592.894 441.433 612.339 437.884 617.897C438.846 621.662 473.713 635.089 476.112 637.49L474.469 637.964C468.677 644.942 459.617 635.325 453.643 632.859C447.836 630.461 443.619 629.808 438.661 625.614C432.658 628.957 424.039 634.26 423.442 641.911C424.498 643.842 425.072 644.397 424.804 646.445C420.927 654.462 409.121 655.51 407.477 647.871C406.087 641.413 420.082 623.021 423.738 618.319C419.8 617.91 417.946 617.519 416.815 613.681C413.015 615.291 407.155 612.488 404.838 609.275C404.579 607.903 404.528 608.162 404.624 606.813C409.388 605.162 414.25 607.871 416.775 611.971L416.815 613.681C420.2 610.971 422.319 612.574 425.576 614.396C427.985 611.306 430.625 608.377 433.746 605.984C437.678 602.969 442.52 601.34 446.745 598.776C460.273 590.568 471.834 580.64 487.424 576.158C491.705 574.927 522.945 570.305 523.358 569.982C524.616 568.998 523.684 565.072 526.092 563.352C527.681 562.217 530.517 561.919 532.389 561.4C543.478 558.329 562.495 555.121 570.433 546.537C571.762 545.1 572.079 544.16 571.99 542.19C571.908 540.384 577.315 534.851 578.748 533.181C577.254 530.992 576.479 529.686 576.671 527.09C577.591 524.931 579.217 523.96 581.091 522.455C577.661 521.442 573.769 521.076 572.329 517.656C573.092 515.081 580.879 511.43 583.981 508.508C604.602 507.807 593.316 517.069 596.486 522.514L597.094 522.635C600.167 518.785 598.184 520.261 599.595 515.598C600.023 514.186 600.162 514.231 601.18 513.776C602.413 514.827 602.017 514.54 602.284 516.689C606.483 518.621 605.672 517.457 608.84 521.241C612.016 517.225 614.386 511.333 617.268 508.13C620.662 509.74 623.659 509.424 625.632 505.847C629.688 498.492 634.763 466.658 640.59 463.07C645.479 466.725 635.545 481.075 640 484.199C644.932 483.602 647.261 479.867 649.698 476.063L645.765 473.242C645.193 469.58 644.893 463.792 644.574 459.955C642.902 461.217 642.133 462.093 640.158 461.202C638.855 458.053 642.522 451.879 646.542 452.435C648.772 454.272 650.037 456.968 651.526 459.521C659.517 452.072 669.019 445.103 679.695 451.984C682.15 453.565 684.238 454.362 685.852 456.951C685.911 457.525 685.971 458.098 686.03 458.671C682.617 462.445 675.907 468.236 674.422 472.928L674.209 473.624C676.676 475.391 680.491 478.168 682.424 479.555C692.614 486.866 690.846 483.088 697.428 475.889C698.601 474.607 702.317 474.744 703.693 476.651C703.152 477.689 702.71 478.459 702.112 479.449C703.503 481.301 706.734 483.253 708.763 484.635C710.939 483.089 714.551 480.35 714.953 477.657C712.67 475.667 709.212 477.424 708.458 474.032C709.734 470.672 719.085 461.153 722.819 461.078C731.162 465.971 719.424 475.076 722.603 481.177C724.282 482.323 724.336 482.37 726.37 482.66C727.787 481.275 730.372 475.649 731.895 473.361C735.611 467.779 739.264 462.796 743.433 457.565C743.885 439.475 748.69 421.761 760.277 407.224C766.047 399.985 775.747 395.719 783.767 391.772C786.311 390.519 789.335 388.443 792.012 388.282C798.573 392.958 796.51 377.008 802.972 373.566C804.802 373.824 804.7 373.833 806.098 375.099C807.999 378.969 806.039 383.214 804.729 387.272C811.345 378.57 811.555 368.251 819.103 360.95C823.226 356.962 827.372 361.08 829.826 364.305C844.432 349.588 860.654 338.88 879.543 331.165C884.688 329.063 896.348 317.515 900.38 316.723C911.645 314.512 920.069 311.72 930.466 306.684C949.384 299.657 962.926 290.938 979.712 280.346C999.044 268.147 1019.4 256.875 1032.17 236.797C1037.91 227.775 1043.51 209.371 1040.88 198.82C1039.92 201.113 1038.36 205.726 1035.24 204.198L1034.72 202.517C1035.11 199.094 1036.71 197.764 1039.07 195.405C1040.5 193.515 1040.97 192.243 1041.91 190.117C1041.29 185.082 1040.92 179.172 1040.4 174C1035.89 168.494 1034.76 170.598 1028.95 167.961C1026.22 166.722 1026.54 164.524 1022.45 164.586C1016.31 167.62 1020.15 177.76 1019.13 181.398L1016.19 181.972L1014.77 181.517C1017.56 168.153 1021.1 155.819 1012.54 144.289C1011.83 143.334 1010.54 141.304 1009.36 141.459C1005.06 142.023 985.241 144.65 982.725 145.562L982.115 144.853C982.253 143.047 982.023 142.708 981.152 141.12C984.459 137.873 1002.03 140.275 1005.65 133.495C1005.53 124.693 983.874 120.637 977.127 118.86C960.489 114.479 945.2 109.028 929.656 101.665C924.127 99.0349 930.96 91.8767 921.065 86.2277C919.646 82.7752 918.001 78.5239 916.294 75.2293C914.648 72.0531 910.942 71.1488 910.773 67.5749C914.13 61.0791 915.954 59.2251 909.148 54.3305C905.43 51.6568 901.575 49.2978 897.761 46.7598C897.753 46.7538 896.393 44.1067 896.326 43.9784C885.013 39.5136 886.2 41.4388 874.802 43.2134C873.156 43.4695 868.029 41.8824 866.488 41.8388C860.901 41.6807 852.426 43.7416 847.495 45.9505C835.215 51.4512 825.102 61.3514 815.851 70.8716C812.657 74.1588 808.927 75.6378 806.13 80.1279C801.547 87.484 802.41 93.2245 795.66 98.9791L794.112 100.313C794.374 104.371 795.693 112.377 793.009 115.649C790.806 118.334 787.078 121.319 785.152 124.106C782.878 127.397 784.432 129.384 779.82 131.368C775.219 130.862 775.365 125.242 771.708 129.078C764.887 136.235 765.011 128.132 756.39 133.902C740.565 144.493 727.816 155.16 709.367 160.938C705.111 162.271 691.033 175.943 686.288 178.845C668.841 191.946 640.282 203.418 618.23 202.297ZM96.5992 687.326C98.6971 687.291 103.575 687.189 104.579 689.101C107.782 695.202 117.989 704.435 120.307 709.776L119.653 711.064C118.254 710.86 116.86 710.621 115.472 710.35C116.423 712.222 118.409 712.723 120.32 713.211C121.616 713.403 123.914 714.832 125.171 715.524C123.06 714.949 121.065 714.206 118.928 714.391L118.91 715.22C128.451 720.823 146.157 732.792 155.57 735.125L156.085 734.545C154.997 727.394 142.189 721.316 145.906 714.85C147.135 714.076 147.489 713.713 148.953 713.624C151.008 715.098 155.587 721.043 156.928 723.258L156.407 725.055C160.493 728.305 159.46 725.838 163.165 731.448C164.743 731.922 166.551 732.694 168.105 733.308C170.812 736.525 174.273 741.914 176.462 745.448C173.611 743.653 170.647 741.597 167.827 739.718C170.946 744.766 174.23 751.264 177.738 755.927C183.664 763.806 190.75 772.368 197.299 779.712C199.273 780.204 201.52 780.57 203.538 780.947C206.234 786.766 213.697 792.631 219.608 795.205C220.896 795.766 221.395 792.125 224.478 792.406C224.829 793.937 223.656 795.009 222.631 796.912C224.726 798.164 232.893 800.69 235.061 799.533C235.959 798.102 235.523 796.38 235.355 794.621L235.87 794.304C243.022 796.931 241.749 798.959 244.962 800.87C246.934 800.497 246.176 800.979 247.368 799.467C247.256 797.303 247.288 797.969 245.996 795.91L247.175 796.07C248.806 797.308 248.839 797.624 249.818 799.533L250.096 800.087C254.407 801.234 260.725 802.586 264.738 803.601C267.727 804.722 276.57 813.003 279.006 813.389C287.341 814.71 296.322 814.473 304.913 816.504C308.519 817.356 314.795 817.13 318.818 817.82C326.802 818.66 335.686 820.859 343.731 820.941C356.632 821.072 369.889 820.888 382.8 820.541C387.481 820.415 391.258 816.441 396.596 816.261C402.639 820.118 402.909 819.216 409.867 817.838C418.827 822.963 421.055 819.537 430.644 819.297C438.083 819.111 446.72 821.261 454.209 820.066C455.018 819.085 454.925 818.254 455.03 816.965C453.38 814.291 451.539 816.668 449.988 813.715C450.809 808.25 455 811.718 458.603 807.536C461.384 804.308 459.814 798.674 459.552 794.418C457.844 793.897 452.947 792.312 451.399 792.629C446.359 793.664 442.775 801.532 437.828 802.957C435.264 803.456 433.117 800.941 430.529 801.575C430.02 801.7 429.444 801.685 428.926 801.702L428.095 801.739C424.336 795.397 434.795 783.049 438.579 778.381C444.843 770.654 449.704 763.88 453.736 754.66C450.805 752.284 446.633 748.989 447.805 744.882C450.359 743.135 452.567 744.429 455.221 745.418C453.436 741.291 446.83 724.438 444.061 722.504C443.593 724.044 445.003 729.884 445.381 731.912C443.43 733.952 438.438 733.58 434.996 735.82C432.738 735.566 431.606 735.343 431.01 733.022C432.055 730.913 432.866 730.998 435.23 729.687C432.542 723.57 428.994 716.026 440.888 720.777C438.894 717.456 435.755 713.08 433.512 709.719L428.88 707.627L428.662 707.234C423.771 698.563 420.11 703.87 412.232 702.129C410.317 701.705 407.398 699.246 408.509 696.882C410.42 695.823 414.542 695.687 416.98 695.39C417.004 694.118 416.945 690.438 417.538 689.515L419.163 686.944C416.358 683.56 401.606 673.68 397.351 672.078C383.641 666.919 368.82 663.728 355.427 657.478C350.757 655.867 342.182 647.213 337.845 646.26C324.643 643.356 321.11 644.986 309.158 637.645C298.599 639.692 296.554 638.376 286.243 634.936C294.497 651.707 292.246 650.316 311.234 655.838C312.762 657.526 313.992 658.519 314.531 660.69L313.936 661.637C310.845 661.916 309.398 661.581 307.52 664.329C307.436 670.158 317.657 672.91 322.263 674.499C323.77 674.154 325.129 673.902 326.653 673.634C328.938 674.05 329.654 675.279 331.26 677.046C341.241 677.759 370.803 689.883 377.481 696.361C378.291 697.817 377.943 698.607 377.653 700.277C376.161 702.1 375.622 702.922 373.269 702.15C371.813 700.674 371.767 700.083 371.157 698.104L370.96 697.456C370.04 696.683 365.94 696.713 364.326 696.555C359.779 696.11 356.376 692.605 351.894 692.165L350.496 693.838C349.338 694.09 348.779 694.038 348.052 694.92L348.255 696.394C349.99 697.886 349.807 697.292 352.5 697.753L352.372 699.448C354.157 702.22 357.379 701.201 360.526 704.4C361.452 709.359 362.227 708.082 365.114 711.83C366.607 713.769 368.339 717.365 369.511 719.648C371.894 720.488 375.215 724.787 375.155 726.988L373.57 728.076L374.158 728.661C374.287 728.647 375.84 728.506 375.807 728.517C379.267 727.885 380.755 740.111 382.646 740.956C389.597 744.064 392.078 747.472 392.053 755.472L392.048 756.166C393.441 756.638 393.78 756.556 395.245 756.67C395.722 757.819 394.7 781.655 394.707 785.717C393.108 788.28 390.078 788.842 387.383 787.748L386.967 786.674C388.053 784.641 389.517 782.281 389.308 780.066L388.299 779.649C385.674 780.424 385.306 783.122 383.746 784.002C378.708 786.844 359.128 793.464 355.33 787.93C358.806 780.824 377.475 784.783 386.662 771.309C385.374 760.1 380.859 758.126 379.929 749.388L373.983 745.087L373.705 738.237C368.78 734.43 366.849 729.652 363.744 724.326C364.008 722.902 364.09 722.837 363.871 721.353L361.192 720.738C360.078 719.746 359.969 719.997 359.704 718.602C358.975 714.492 354.929 711.981 352.6 708.927C338.882 690.934 312.854 693.026 293.332 686.17C293.43 686.205 291.275 683.885 290.294 683.366C288.842 684.644 288.72 684.821 286.973 685.557C283.704 685.335 281.506 682.338 278.678 681.734C272.55 680.425 244.03 675.107 240.392 671.955L241.237 670.255C240.206 669.726 240.406 669.826 239.332 669.665C219.033 666.612 197.966 657.888 179.335 649.482C176.034 647.992 173.207 645.174 171.721 644.541C168.892 643.069 158.744 639.639 156.918 637.69C149.306 629.563 138.035 619.732 127.99 633.684L127.556 634.293L126.623 634.303L125.686 633.342L125.713 632.176C126.936 631.168 127.188 631.012 128.138 629.666L127.795 628.247L126.957 627.935C125.849 628.657 125.059 629.078 123.907 629.68C122.627 629.386 122.217 629.31 120.911 629.206C119.695 630.339 118.893 630.655 118.599 631.971C120.051 632.68 120.556 632.603 122.141 632.685L122.231 633.456C121.31 634.269 116.913 638.02 116.504 638.777C113.618 644.115 118.672 651.187 108.761 650.021C108.155 648.197 107.656 647.471 108.038 645.813C109.545 645.645 109.646 645.736 110.96 644.897C112.038 642.227 110.227 644.339 109.821 640.796C111.675 637.069 116.56 630.418 120.536 628.824C124.171 626.956 123.003 627.269 124.971 624.715C130.483 617.564 145.522 614.234 152.401 610.548C148.841 607.723 148.913 601.359 145.425 601.937C134.309 603.778 120.089 611.368 109.409 614.959C108.584 615.236 106.128 625.377 105.195 626.795C101.271 631.989 88.1516 650.269 94.2378 656.626C97.1659 657.1 101.998 656.398 103.913 653.945C103.789 651.077 102.199 651.412 102.335 650.009C103.574 649.45 107.448 649.717 108.761 650.021C105.341 655.178 103.038 658.485 101.265 664.539L101.343 664.918C101.549 665.959 101.714 666.363 101.456 667.405L100.952 667.832C99.5278 669.06 98.8973 669.309 98.575 670.993C98.8479 672.69 99.2311 673.02 100.217 674.398C98.9524 675.608 99.1756 674.03 98.789 674.857C97.5844 677.435 96.9267 684.673 96.5992 687.326ZM642.464 502.732C645.971 503.168 652.098 504.461 650.232 509.246C648.363 514.041 640.892 517.622 637.323 521.205C633.847 524.693 631.086 528.372 627.517 531.652C626.435 532.645 623.456 534.181 622.11 534.915C620.457 539.184 618.058 544.499 612.548 543.247C611.177 542.024 611.594 540.395 610.942 537.859C609.179 539.132 608.026 543.898 606.283 545.601C597.536 554.145 592.147 561.815 588.352 573.528C587.442 576.335 584.833 580.006 584.08 582.953C583.049 586.991 582.923 591.254 581.722 595.348C568.384 594.156 588.128 555.011 590.543 549.177C579.889 563.125 571.274 579.99 565.422 596.509C569.968 601.787 575.117 604.585 581.03 608.184C581.056 605.003 579.747 601.25 580.22 598.691C581.536 597.951 581.273 598.221 583.114 598.407C586.375 601.392 595.519 627.576 595.174 632.072C597.083 633.501 596.845 632.88 597.429 634.774C597.095 635.731 596.757 636.66 596.48 637.636C597.575 638.112 598.233 638.377 599.39 638.763C600.865 640.954 602.133 645.819 602.966 648.557C606.506 648.297 610.746 647.841 614.07 648.257C618.684 648.835 619.241 654.413 616.601 657.364C613.769 660.528 606.702 660.836 603.12 661.992C604.212 663.491 606.641 663.836 608.513 664.266C611.058 663.364 614.06 661.995 616.66 662.31C617.923 663.676 617.488 663.66 618.842 663.718C620.416 662.105 619.73 662.33 621.578 662.157C624.068 664.217 624.908 664.402 627.922 665.483C629.639 664.04 632.43 661.756 634.506 663.836C633.858 666.54 629.299 669.555 626.736 669.666L625.595 668.365C624.875 667.212 623.923 666.638 622.835 665.809C623.09 668.221 623.883 673.642 626.984 673.531C629.576 671.511 631.456 670.543 634.78 670.426L636.009 670.979C636.963 674.283 633.982 677.2 632.034 679.896C633.112 681.077 634.707 682.442 634.87 683.923L633.818 685.217L637.108 687.458C638.859 688.657 639.48 689.604 640.757 691.289C639.84 692.711 638.652 694.438 637.835 695.877C641.574 703.258 646.3 715.325 643.194 723.406C644.545 727.036 645.796 730.703 646.945 734.402C647.535 731.415 648.572 728.705 647.033 726.172L647.504 725.253L648.778 725.199C650.67 727.298 648.002 727.524 650.166 729.294C652.271 729.294 652.458 729.159 654.487 728.437C659.498 733.445 679.726 753.929 673.329 760.498C669.867 760.918 668.547 758.817 666.853 759.989C664.188 771.858 699.929 774.71 707.309 776.757C712.565 782.569 717.351 780.784 724.275 779.149L727.883 774.015C730.073 774.667 732.321 775.369 734.524 775.952C745.704 772.349 752.46 760.381 760.262 759.036L761.248 759.758L761.251 760.818L760.771 761.255C756.121 765.541 755.456 769.228 749.624 774.51C750.864 776.813 751.668 778.379 753.243 780.514C767.346 766.994 768.165 767.944 784.841 761.109C783.435 759.32 782.415 758.5 783.111 756.242L784.17 755.961C786.315 757.269 785.662 756.91 786.964 759.537C787.811 759.265 791.292 758.217 791.441 757.701C794.923 745.673 806.536 741.287 814.024 732.482L811.429 731.223L811.147 730.118C813.01 722.967 819.748 724.01 825.988 723.725C837.494 708.411 833.091 713.038 840.822 714.502C843.092 714.931 863.756 697.579 866.147 694.262L865.957 693.587C862.325 693.449 834.02 709.113 829.479 711.963C826.525 713.817 822.407 718.973 817.243 721.697L816.601 722.03C811.36 721.499 809.912 721.664 804.76 722.681C802.495 721.29 800.647 720.708 798.178 719.788C794.839 710.89 791.411 708.441 785.589 701.353C778.296 709.03 773.457 703.397 768.427 712.28L762.231 713.808C761.879 715.696 761.638 717.772 761.372 719.689C760.088 719.397 755.099 718.18 753.895 718.263C747.634 718.694 738.324 726.732 732.979 720.1L730.685 717.21C730.382 710.547 739.922 708.929 744.823 706.73L742.528 700.257C740.641 700.789 739.178 701.5 737.287 700.833L736.826 701.221C737.758 699.366 737.372 694.965 739.12 689.942C737.711 683.351 734.582 677.142 732.869 671.348C727.352 652.696 714.319 648.978 698.594 640.927C698.219 640.735 695.159 637.492 694.162 636.722C688.352 635.865 674.775 651.368 669.486 654.851L668.886 655.238C655.249 651.056 658.5 651.928 659.943 638.947C662.812 636.459 664.945 635.744 664.313 631.92C661.042 630.415 657.125 637.795 651.391 639.316C645.903 638.361 648.012 632.429 651.7 630.609C652.891 630.021 655.819 627.155 656.934 626.083C656.431 618.641 656.646 616.745 652.827 610.365C653.147 599.807 656.885 583.596 664.53 575.411C665.547 574.322 668.123 574.687 669.598 573.283C671.313 571.649 671.495 570.073 673.096 568.467C673.802 567.759 674.127 568.052 675.442 568.128C675.641 561.305 676.597 566.265 681.321 560.814C680.954 552.698 683.714 538.235 686.903 530.353C688.053 527.509 688.171 528.174 688.538 524.731C682.669 514.319 685.523 510.073 683.915 498.739C679.828 497.384 675.489 505.132 669.318 504.771C667.671 503.791 668.114 504.468 667.692 502.856C670.837 496.923 677.697 497.664 683.379 489.726L683.791 489.147C680.229 484.73 671.85 476.696 666.273 481.936C659.508 488.292 658.706 492.659 648.856 495.223C646.768 497.43 644.448 500.356 642.464 502.732ZM864.696 370.857C861.119 377.998 845.828 396.011 839.178 399.184C833.391 401.944 832.353 395.662 828.15 408.759C827.571 410.564 811.571 423.439 808.723 424.045L807.556 423.22C806.637 419.846 810.438 417.39 811.485 413.822L808.061 412.807C806.499 411.461 806.352 409.802 805.794 407.724C801.454 411.935 801.327 412.307 795.411 411.561C786.205 423.477 778.124 437.908 768.723 449.931C764.352 455.521 761.717 456.058 757.959 462.806C754.745 467.272 752.988 470.446 750.325 475.248C754.097 471.715 757.947 467.842 762.325 465.14C766.238 461.007 764.662 458.143 772.943 452.161C776.567 442.86 778.586 443.079 787.194 438.446C788.245 435.25 789.618 429.852 793.522 428.898C795.251 428.476 797.724 428.15 799.292 429.087C800.862 434.394 783.427 454.379 780.091 459.544C775.112 467.255 771.277 474.505 763.3 479.331C760.28 487.661 760.162 488.578 753.043 493.861C752.298 496.258 751.785 497.43 751.76 499.964C753.866 501.123 759.196 495.877 761.02 496.73C773.412 502.529 748.17 523.15 748.554 530.083C748.959 537.395 736.538 542.896 737.298 548.224C738.18 548.187 739.317 547.788 739.939 547.157C745.354 541.671 750.244 537.048 756.438 532.419C775.306 539.087 752.619 554.398 748.818 563.762C748.264 565.126 744.801 568.343 743.553 569.548L748.007 573.126C752.426 568.588 757.694 563.088 762.724 559.179C764.998 557.412 769.448 556.7 772.288 554.003C776.146 550.34 776.98 544.712 780.388 541.25C790.945 530.527 802.58 520.203 812.637 509.063C816.199 505.118 819.769 497.09 823.202 492.616C827.885 486.513 832.974 480.776 836.641 473.996C830.51 478.041 830.796 475.285 826.52 482.138C822.657 488.331 810.973 495.546 805.519 500.786C802.396 503.786 799.149 506.729 795.61 503.643C795.498 502.759 795.192 502 796.107 501.337C801.513 497.418 806.268 495.897 810.166 490.051C810.264 489.905 815.487 486.067 816.034 485.626C821.645 481.103 826.264 476.037 831.139 470.783C841.9 460.163 852.874 449.382 862.688 437.883C867.014 432.813 869.052 424.855 872.268 419.059C873.92 416.01 877.338 411.992 878.847 409.222C884.967 397.982 895.02 383.687 898.97 371.834C887.725 378.963 882.932 386.426 876.863 397.791C875.489 400.364 872.066 404.293 870.414 407.188C867.993 411.428 865.381 416.489 862.529 420.38C857.749 426.9 849.361 434.127 845.324 440.892C842.854 442.015 839.589 443.923 837.119 443.656L836.705 442.822C837.493 439.989 839.537 438.557 841.269 435.102L841.586 434.465C850.148 430.179 860.583 409.159 867.819 400.016L868.663 390.771C871.713 386.362 875.077 385.249 877.549 381.218C874.893 381.498 871.523 385.315 869.613 386.873C858.852 395.65 852.698 406.589 847.85 419.332C847.227 420.969 846.372 421.233 844.849 421.76C842.639 421.28 843.578 421.768 841.914 420.258C840.092 415.681 844.195 406.358 846.36 402.294C856.102 384.009 871.69 370.378 888.749 359.081C892.119 356.849 895.54 353.58 898.982 351.332C905.536 348.006 910.899 347.482 916.759 341.865C918.096 337.692 911.387 329.29 926.147 331.193C928.511 331.498 936.57 322.86 938.562 320.934C926.841 326.063 913.58 330.345 905.042 339.684C901.043 340.679 890.966 343.338 888.779 346.426C888.105 349.707 891.21 351.531 889.855 353.851C885.586 361.165 871.892 367.443 864.696 370.857ZM307.735 894C309.64 893.842 310.98 893.691 312.86 893.358C311.719 892.454 311.34 892.588 309.801 892.264C303.974 890.837 298.842 889.998 292.906 890.985L292.672 891.915C294.871 894.53 302.475 894.011 305.621 893.48L307.735 894ZM748.479 609.356C749.491 612.314 751.179 616.411 750.101 619.284C741.052 622.411 738.933 608.46 736.453 611.929C731.554 618.781 725.757 624.9 721.574 632.329L721.38 632.683C723.106 633.787 726.115 635.677 727.516 637.049C733.669 643.073 733.631 646.937 742.209 649.753C751.794 652.187 770.085 665.239 777.228 673.191C782.824 670.317 790.816 663.423 794.31 658.29C796.962 654.395 797.25 653.113 800.748 649.548C793.935 638.67 792.998 628.6 794.717 615.55C795.111 612.558 798.832 608.491 798.584 606.013C796.797 604.187 796.926 604.879 796.727 602.837C799.015 598.398 807.435 595.827 812.435 590.627C812.417 586.875 812.349 583.022 812.46 579.28C802.392 579.49 787.124 582.314 778.667 577.471C773.57 581.538 771.841 583.122 765.782 585.754C764.848 587.602 764.91 586.696 765.374 588.541C770.169 590.474 790.09 580.133 795.172 586.377L795.236 587.618C787.741 595.777 766.502 594.002 760.531 603.256C756.019 610.251 761.303 611.062 748.479 609.356ZM197.098 619.266C196.713 621.945 197.339 622.957 198.345 625.334L197.95 626.148C196.014 626.249 195.865 626.22 193.96 625.774C191.98 625.178 189.765 623.904 187.255 623.135C185.327 622.583 183.191 621.846 181.223 621.732C182.922 622.784 184.737 623.454 185.404 624.983L184.516 625.322L182.811 623.711L181.807 623.783L181.602 625.259C177.525 626.123 178.667 622.113 171.13 625.03C171.252 627.767 175.727 631.361 178.259 632.543L176.531 633.286L176.757 634.038C178.886 634.943 179.823 635.207 182.076 635.764C192.449 641.029 186.35 639.204 196.358 638.268C201.141 637.432 202.87 639.717 205.904 639.6C209.828 639.449 210.243 638.681 214.93 639.09L219.461 638.845L219.594 640.145C218.867 641.584 218.068 642.317 218.791 643.968L220.63 645.849C218.491 645.917 216.086 646.229 214.184 645.455C213.316 643.433 214.029 642.674 214.83 640.197C212.87 640.434 211.463 640.345 210.055 641.62L208.904 644.007C205.022 644.768 199.929 643.622 196.619 644.449L196.345 645.066C199.052 646.849 201.026 646.486 203.253 647.704C207.775 650.177 213.423 654 218.305 655.592C231.576 659.944 244.572 664.396 258.149 667.731C264.949 669.401 271.987 673.496 279.183 674.075C282.588 674.349 296.803 673.071 299.081 671.654L299.319 671.072C296.219 667.801 295.376 665.546 300.364 663.267C301.549 662.949 302.763 662.577 303.945 662.231L304.065 661.66L302.139 661.014C299.154 660.267 296.211 660.252 293.137 660.103C291.884 662.852 291.564 664.412 288.893 665.592C284.91 664.997 286.223 660.467 286.672 657.524C280.38 657.513 266.638 658.004 261.622 653.828C259.726 652.25 259.144 651.878 256.861 650.836L256.176 650.529L256.455 649.695L257.984 649.481C265.654 652.378 270.606 648.555 276.91 647.321C277.803 647.17 280.2 647.084 281.222 647.018L281.773 646.303C282.078 643.002 281.687 640.006 278.426 638.503C277.009 639.086 276.654 639.216 275.131 639.187C272.92 640.994 273.506 640.014 272.975 642.879C269.751 645.189 267.83 643.617 264.175 642.531C263.151 643.573 263.596 643.092 263.142 644.783C261.921 645.248 237.827 640.628 233.235 640.617L232.425 640.62L234.155 633.032C237.353 632.647 247.972 633.058 249.429 631.31C246.977 622.989 224.533 625.626 222.618 624.232C223.727 623.602 223.746 623.682 224.472 622.659C224.45 620.478 224.343 621.027 222.946 618.863L223.297 618.292L222.967 618.913C226.918 617.349 231.866 619.173 236.331 620.148C229.554 615.719 226.006 610.78 218.693 606.789C210.361 602.241 196.181 608.196 193.717 607.115L193.524 604.044C191.902 601.885 189.051 602.054 187.023 603.522C187.059 606.343 186.892 606.408 184.594 607.635L184.729 608.254L187.762 609.319L187.607 609.868C185.362 610.889 184.732 611.047 182.41 611.544L181.784 611.674C182.87 615.641 182.814 616.987 186.458 619.531C186.841 618.94 187.277 618.49 187.741 617.95C190.494 617.658 194.803 617.557 197.098 619.266ZM218.076 625.437C211.271 622.791 210.659 622.489 203.519 622.289C201.008 620.225 200.422 620.043 197.418 619.184C197.543 616.249 197.092 616.803 198.507 614.716C202.424 612.415 209.183 614.445 213.516 615.573C216.087 616.257 218.632 617.037 221.146 617.911C218.371 620.151 218.77 621.44 218.076 625.437ZM1014.04 185.82C1014.4 187.036 1014.78 188.224 1015.04 189.463C1013.86 193.185 1007.87 208.937 1005.03 210.636C1004.75 210.252 1004.46 209.868 1004.18 209.485L1003.93 209.108C1002.92 209.894 1003.34 209.702 1002.14 210.086C1001.99 207.444 1011.53 189.332 1014.04 185.82ZM883.194 598.151C884.831 601.509 887.13 604.544 888.382 607.202C887.435 618.502 887.091 625.468 884.354 636.577C895.777 624.369 902.972 608.347 902.649 591.416C902.506 583.945 899.812 575.902 894.104 570.959C890.318 567.68 882.723 561.714 878.347 559.35C870.501 567.322 869.061 564.348 864.942 555.31C863.093 551.251 860.408 546.444 856.531 544.005C853.963 545.989 852.255 547.39 849.395 548.943C852.016 550.576 855.03 552.016 855.887 554.978C855.421 560.632 844.78 577.887 841.008 582.779C843.901 580.781 862.754 565.534 862.025 577.5C860.028 581.964 852.176 583.364 847.238 588.01L847.116 588.123C852.319 595.003 854.835 601.259 859.521 608.237C863.365 600.944 873.327 574.782 882.737 591.634C883.199 592.462 883.214 596.978 883.194 598.151ZM708.937 567.593C703.166 572.728 687.533 589.175 693.976 599.182C695.586 601.682 696.896 599.77 698.099 604.506L697.856 605.555C700.277 607.041 701.043 607.055 703.333 608.112C704.27 610.62 704.014 611.095 705.902 612.711C713.981 614.49 719.249 597.783 725.116 594.539C726.698 593.664 731.896 592.545 733.905 591.954C737.546 588.226 742.123 580.992 740.818 575.608C737.716 573.11 734.83 577.509 731.947 576.694C732.025 575.244 732.19 573.712 732.973 572.448C735.042 569.111 751.298 554.23 748.002 550.109C747.97 550.07 747.922 550.049 747.882 550.019C737.891 555.296 731.45 562.015 725.274 571.454C722.4 575.845 722.428 576.565 717.617 577.963C717.313 581.155 718.413 584.47 712.976 583.974C712.511 583.66 712.045 583.345 711.579 583.031C708.552 574.875 703.988 576.388 708.937 567.593ZM564.616 801.068C570.654 800.586 571.758 798.73 576.819 795.536C579.081 798.034 577.411 797.977 580.201 799.512C583.893 799.31 584.803 798.676 587.23 796.049L588.586 794.607C589.479 794.734 592.457 795.55 592.887 795.387C597.729 793.547 608.076 791.001 611.776 787.694C611.39 785.211 608.601 784.518 606.357 783.921C595.146 780.941 584.99 778.055 573.256 778.64C569.741 779.039 564.255 779.282 561.553 781.29C561.458 784.218 564.242 783.579 563.798 786.269C559.252 788.897 556.172 786.692 551.95 784.494C548.662 782.781 537.53 785.643 535.947 788.264C536.94 791.148 538.693 794.088 542.031 794.536C544.204 793.312 544.479 792.298 546.375 792.085C547.014 793.266 547.63 794.459 548.225 795.664C550.318 795.021 551.853 794.45 554.048 794.235C556.077 795.575 555.904 796.48 555.315 798.73C554.284 799.645 553.567 799.533 552.174 799.64C555.502 804.246 559.805 802.227 564.616 801.068ZM507.989 824.197C504.924 827.212 499.444 830.376 499.112 833.491C500.136 834.929 501.345 835.295 503.146 835.457C503.802 833.798 503.748 833.824 503.827 832.011C507.924 825.718 511.089 832.995 512.235 836.624L512.966 836.535C513.808 835.09 513.782 835.018 514.203 833.478C516.104 832.223 515.399 832.597 517.872 832.396L518.907 832.925C518.993 834.455 518.915 834.563 518.611 836.009C520.717 837.346 525.534 835.965 527.457 834.321C528.044 832.902 528.019 832.533 529.029 831.444C531.284 831.205 530.493 830.988 532.367 831.939C532.913 833.116 532.97 833.543 533.836 834.476C541.933 833.421 549.923 831.657 557.711 829.204C560.998 828.136 562.989 824.445 565.565 824.03C566.643 823.856 570.285 825.734 571.794 824.237C570.389 821.514 563.634 814.985 560.727 813.258C560.324 813.018 557.923 812.931 557.279 813C552.066 813.572 536.646 814.466 533.134 815.916C521.191 820.847 522.061 823.697 507.989 824.197ZM813.397 744.574C812.178 749.504 811.986 750.036 808.457 753.736C812.327 752.701 816.192 751.644 820.05 750.565C835.775 744.928 840.47 742.87 856.823 740.435C863.47 733.923 864.497 733.659 873.606 731.147C870.142 729.473 863.065 726.785 861.375 724.009L860.658 723.99C844.87 727.887 826.398 734.521 813.397 744.574ZM807.852 664.029C807.597 666.107 807.357 668.677 806.912 670.68C799.049 678.373 793.896 678.52 786.032 684.808C786.214 688.433 785.862 689.761 785.137 693.351C787.922 697.846 791.919 700.306 795.532 704.052C797.297 705.881 799.279 708.501 800.992 710.544C803.318 710.803 803.867 710.276 805.183 708.419C804.821 705.173 801.863 705.932 800.633 702.554C801.821 699.997 802.848 699.633 802.601 697.629C800.671 695.766 799.325 695.213 798.525 693.046C800.341 682.779 822.63 662.77 832.321 657.578C834.186 656.578 842.085 651.879 842.643 650.925C841.156 650.349 840.356 650.622 838.777 650.846C827.309 653.759 817.791 657.14 807.852 664.029ZM171.733 802.491L178.79 799.761C170.986 783.143 156.792 772.736 139.291 768.277C140.766 770.558 141.209 771.369 143.289 773.247L143.237 773.858C142.282 775.186 142.628 775.422 142.576 777.439C140.87 777.407 140.174 777.039 139.26 777.884C140.686 787.064 163.259 799.765 171.733 802.491ZM343.22 831.554C348.346 832.411 350.567 834.41 355.499 835.846C358.709 836.781 360.46 835.861 363.144 837.368C367.999 838.49 374.543 836.739 376.107 837.82L375.364 839.697L375.867 840.748L378.448 841.623L378.14 842.18L374.361 843.102L374.118 843.718C378.371 847.082 396.759 839.997 399.721 836.588C400.074 834.994 400.327 834.56 399.642 833.08C395.994 830.33 395.478 826.294 390.916 826.64L391.301 828.451C387.952 831.682 372.157 830.172 367.332 829.564C362.1 828.904 352.561 833.523 349.536 827.489C347.763 827.902 344.834 830.359 343.22 831.554ZM214.978 368.11C217.467 363 228.967 343.214 236.069 347.038C236.566 350.406 230.775 354.54 230.766 356.968L231.635 357.676C235.009 356.615 244.104 349.454 242.014 345.128C241.837 344.761 240.839 343.628 240.504 343.253C240.433 341.388 250.887 325.497 252.807 322.88L252.332 322.309C249.06 323.51 244.889 324.767 242.583 327.37C242.183 328.432 242.047 328.78 242.232 329.958C242.864 334.003 238.486 335.645 235.988 337.596C235.511 339.618 235.439 340.958 233.989 342.387C231.744 343.282 229.131 341.221 227.653 342.753C220.488 350.177 206.7 365.24 201.866 374.045C207.352 373.226 212.532 373.643 214.978 368.11ZM290.699 317.717C291.601 317.237 293.924 316.087 294.663 315.595C296.467 314.508 297.88 314.135 298.461 312.514C297.226 310.315 297.143 310.978 297.545 309.064C299.161 307.86 298.26 308.214 300.397 308.119L300.823 308.383C302.295 309.282 302.498 309.466 304.116 309.899C308.451 308.503 313.128 305.452 317.102 303.119C327.797 296.842 338.883 291.314 349.832 285.502C352.246 284.221 355.119 283.281 357.384 281.92C357.124 280.624 356.723 279.595 355.411 278.992C350.117 282.506 346.873 281.554 341.859 283.857C329.872 289.363 318.07 296.536 305.957 301.795C295.72 306.238 294.943 307.605 290.699 317.717ZM223.074 853.88C220.943 852.546 218.2 851.057 216.914 848.9C212.147 840.904 206.155 838.391 199.3 832.675C199.929 830.711 200.106 830.497 199.1 828.76C195.537 826.923 190.006 829.707 185.551 830.163C186.679 829.835 188.101 828.829 189.141 828.181L189.289 827.21L187.862 826.29L187.91 825.678C189.961 824.444 192.035 823.753 192.253 821.248C189.129 816.326 182.244 817.392 178.02 813.471L178.087 811.429C176.166 811.407 172.163 812.99 168.247 813.305C170.246 817.781 172.272 822.821 175.18 826.698C178.958 828.435 181.596 831.054 185.551 830.163L184.053 831.023L183.842 832.175C184.615 834.853 186.236 836.534 188.575 837.911C198.605 843.82 208.8 849.988 219.364 854.859C219.974 855.14 222.311 854.83 223.016 854.728L223.074 853.88ZM326.692 878.549C332.379 881.025 334.804 881.291 333.752 887.859C337.949 888.865 342.672 886.528 346.436 886.074C348.866 887.532 349.867 887.95 352.711 887.063C360.761 884.551 369.18 881.485 377.088 878.59C368.883 876.286 364.027 876.658 355.469 877.19C345.514 877.576 336.593 878.898 326.692 878.549ZM665.33 607.128C668.593 603.637 670.932 596.037 671.94 591.402C671.512 590.375 671.88 590.687 670.985 590.276C667.264 593.99 661.141 601.165 664.472 606.589L665.33 607.128ZM819.862 537.181C815.626 540.95 803.845 550.999 801.239 555.166L801.37 556.648C805.851 556.02 819.617 540.874 819.862 537.181ZM658.797 748.897L661.658 748.413C662.13 746.237 656.135 741.386 654.268 739.066C652.037 742.567 650.895 745.016 653.963 748.821C655.369 749.632 655.633 749.934 657.256 749.758L658.797 748.897ZM293.457 629.968L293.85 629.521C291.574 628.505 290.217 628.391 288.297 627.604C283.401 625.597 279.141 623.306 274.034 621.714C274.696 624.472 275.393 627.707 276.233 630.373L282.062 627.868C285.311 628.582 290.174 629.736 293.457 629.968ZM597.285 648.647C596.222 646.204 591.393 635.418 591.004 633.421C589.115 628.938 585.014 612.349 581.446 610.347C581.559 617.346 582.249 622.233 583.559 629.173C582.27 632.116 580.279 635.626 581.022 638.722C583.013 641.018 584.344 640.172 586.256 643.062C586.903 647.009 583.876 646.675 582.084 649.723C584.136 651.287 590.918 651.476 593.7 651.551C594.777 650.712 596.348 649.576 597.285 648.647ZM354.239 854.083L355.507 853.613C352.139 850.693 342.667 847.307 338.125 847.689L336.817 849.003C339.093 852.303 350.333 854.355 354.239 854.083ZM750.773 597.415C753.277 595.758 758.001 598.299 760.186 595.81C758.558 594.388 753.933 592.895 751.897 592.624C749.3 595.462 747.083 597.121 746.947 600.9L747.549 602.357C749.241 603.059 748.381 602.998 750.222 602.42C752.048 600.4 751.659 599.949 750.773 597.415ZM687.784 618.208L688.936 618.384C690.082 615.691 688.129 610.749 686.07 608.817L684.428 608.281C682.617 609.441 681.537 609.824 680.846 611.807C681.147 616.031 684.183 616.93 687.784 618.208ZM649.723 756.838C648.505 754.312 638.383 734.994 637.265 734.373C638.774 742.156 641.639 753.301 649.723 756.838ZM177.261 640.62L177.545 639.316C175.224 636.832 165.892 633.242 162.007 632.803L161.803 633.886C165.289 637.887 171.93 640.988 177.261 640.62ZM471.618 738.831C471.963 740.617 476.933 751.775 478.186 755.055C479.753 755.36 482.572 755.681 483.83 756.019C481.64 751.803 475.956 740.165 471.618 738.831ZM435.625 681.581C437.293 682.012 438.079 682.572 439.668 681.491C441.862 679.998 445.188 675.946 446.685 673.79C445.998 673.399 446.298 673.423 445.851 673.442C441.803 674.128 435.229 674.592 433.187 678.56C433.787 680.336 434.034 680.112 435.625 681.581ZM203.224 384.039C199.552 385.46 194.098 387.379 191.205 390.04L190.787 391.222C191.587 391.492 192.195 391.721 193.01 391.914C196.463 390.604 202.712 388.463 205.159 386.002L205.149 384.944C204.03 384.184 204.432 384.239 203.224 384.039ZM460.3 785.406C459.816 779.342 459.823 766.559 458.79 762.002C456.919 765.234 454.768 768.571 452.883 771.546C449.654 776.645 434.329 793.247 434.495 797.93C435.727 798.069 435.22 798.236 436.179 797.777C440.383 793.361 447.331 785.09 453.721 784.62C454.747 784.545 459.053 785.2 460.3 785.406ZM841.752 675.822C844.958 674.735 853.898 671.123 855.178 667.984C854.637 667.73 854.545 667.598 854.003 667.566C850.866 668.691 841.51 671.403 840.203 673.998L840.572 675.361C841.202 675.697 841.229 675.864 841.752 675.822ZM525.048 732.833C529.085 732.497 543.35 731.768 545.977 728.864C544.386 728.22 544.179 728.313 542.523 728.482C538.93 729.295 522.914 730.947 521.571 731.683L521.67 732.17C523.093 732.579 523.522 732.74 525.048 732.833ZM893.871 714.994C889.386 715.977 885.843 716.608 881.7 718.74L881.365 719.34C878.864 723.728 877.357 722.772 876.134 724.805C877.548 725.692 878.384 725.769 879.99 726.134C883.183 725.828 896.571 719.085 896.542 715.366C895.08 714.476 895.908 714.741 893.871 714.994ZM192.732 799.268L199.301 799.439C202.76 801.861 204.549 803.858 208.742 801.788C212.066 800.228 214.262 800.928 217.837 801.526C212.912 798.352 207.944 796.456 206.21 791.353C204.386 790.062 201.409 789.843 199.057 789.035C199.792 788.363 199.892 788.362 200.309 787.447C198.576 786.85 199.368 786.803 197.862 787.192C195.637 790.479 194.397 788.092 191.97 790.887C191.991 791.956 192.004 793.026 192.008 794.096C190.401 795.214 190.486 795.174 188.579 795.621C189.33 797.025 191.369 798.271 192.732 799.268ZM610.379 681.766L610.896 680.906C609.236 678.891 605.449 678.548 602.897 678.157C604.013 680.525 604.118 681.889 606.034 682.98C607.753 682.616 608.714 682.334 610.379 681.766ZM619.397 791.202C612.814 799.144 607.881 798.384 598.712 802.135C600.397 801.939 603.925 801.647 605.384 801.185C608.811 800.472 624.491 798.425 623.435 793.926C621.771 792.444 621.392 792.277 619.397 791.202ZM685.389 598.615C690.225 596.122 687.928 590.995 688.166 585.891L687.703 585.39C685.303 588.492 682.113 595.389 685.389 598.615ZM701.436 780.931C701.923 778.567 702.108 779.435 700.968 777.653C697.552 775.88 692.491 776.529 688.515 776.703C691.731 778.301 698.131 782.278 701.436 780.931ZM977.727 308.849L978.99 307.093C978.143 305.072 975.167 305.322 973.151 305.388L972.928 306.743C974.149 308.298 974.2 308.496 975.934 309.302L977.727 308.849ZM728.71 523.88C726.78 526.263 724.048 529.185 723.253 532.035L723.41 533.529L725.481 534.669C727.014 533.314 730.323 526.833 730.278 524.784C729.661 524.383 729.388 524.136 728.71 523.88ZM78.3332 674.643C79.2364 672.09 80.5945 669.757 79.6756 667.576C78.1615 666.99 77.7133 666.953 76.1616 666.712C75.3987 668.96 74.4112 670.975 74.8162 673.22C76.0509 674.673 75.8848 674.218 78.3332 674.643ZM623.271 699.16C620.42 700.636 619.308 701.027 616.253 702.012C619.739 707.604 622.497 707.008 625.139 713.781L629.094 716.048C628.586 711.959 626.928 701.792 623.271 699.16ZM684.359 620.094L684.981 619.519C683.581 617.02 678.981 616.46 675.747 614.097C677.136 616.669 678.386 619.684 680.707 621.224C682.759 621.406 682.197 621.287 684.359 620.094ZM768.141 415.74C771.815 413.85 777.334 411.39 779.69 408.112L779.933 406.902L779.188 406.557C775.358 408.359 770.413 410.693 767.531 413.854L767.119 415.095C767.571 415.454 767.667 415.649 768.141 415.74ZM577.615 692.128C576.117 693.637 576.009 693.964 575.202 695.947C572.897 697.643 569.315 698.995 568.224 700.538L568.953 700.88C572.553 699.464 577.123 698.043 579.401 694.864L579.624 693.399C578.727 692.521 578.792 692.575 577.615 692.128ZM586.451 518.173C588.264 516.969 590.33 515.919 591.323 514.094L591.18 513.007C590.38 512.42 589.925 512.001 589.019 511.598C587.103 513.56 585.305 515.136 584.016 517.541L584.169 518.448C585.342 518.495 585.37 518.578 586.451 518.173ZM129.104 738.455C125.737 735.959 120.281 733.034 116.076 732.694C119.907 736.8 123.26 738.6 129.104 738.455ZM686.335 598.234C685.279 601.368 688.258 604.269 690.993 604.838C692.286 602.58 692.29 603.36 691.932 601.28C690.632 599.601 688.398 598.898 686.335 598.234ZM630.051 820.249C632.362 819.235 634.263 818.724 635.673 816.725C636.065 810.708 615.741 810.801 611.672 811.352C613.048 814.226 619.944 814.585 620.466 818.673C619.802 820.318 619.219 821.727 618.459 823.329C620.672 824.031 627.476 821.189 630.051 820.249ZM876.661 609.158C878.913 607.935 878.881 608.449 879.508 606.649C878.507 605.389 878.564 605.491 877.035 604.937C876.113 606.321 874.711 607.939 874.783 609.489C875.982 609.538 875.552 609.629 876.661 609.158ZM159.592 751.721L160.984 751.379C160.606 749.613 156.269 745.204 154.467 744.842C155.316 747.862 155.016 748.422 153.872 751.126L154.162 752.061C156.196 752.579 157.517 752.122 159.592 751.721ZM569.569 761.55C568.528 762.576 566.329 764.908 564.579 765.483C562.457 766.18 557.003 766.552 554.856 767.754C554.739 768.741 554.637 769.605 554.55 770.346C557.009 770.951 569.854 769.007 572.262 767.969C578.107 763.838 579.379 769.644 590.78 762.04C584.526 761.491 575.808 761.119 569.569 761.55ZM658.892 476.058C660.353 475.171 661.869 474.516 662.558 473.014C662.117 471.569 662.522 472.115 661.425 471.239C659.912 472.351 658.143 473.298 657.603 475.004C658.34 475.937 657.865 475.661 658.892 476.058ZM581.404 826.854C588.643 826.612 591.9 826.109 599.083 824.201C601.567 823.116 606.174 821.429 607.264 818.916C605.414 815.844 598.975 815.832 595.857 814.249C592.104 812.344 590.775 811.833 586.459 812.17C584.684 818.071 581.602 818.35 580.658 821.65C580.842 823.52 581.077 825.002 581.404 826.854ZM445.192 696.087C444.025 692.178 442.898 691.881 438.832 690.869C440.349 693.95 441.071 696.495 445.192 696.087ZM847.278 509.098C846.744 506.469 845.338 502.645 842.719 501.427C843.407 504.827 844.326 506.978 847.278 509.098ZM126.691 605.311C128.066 604.301 129.294 603.841 129.504 602.521C128.565 602.04 128.326 601.856 127.307 601.621C125.897 602.932 124.891 603.347 124.74 604.888C125.588 605.121 125.817 605.234 126.691 605.311ZM444.169 831.208C441.361 833.103 439.317 834.98 436.02 835.091C429.964 835.296 434.25 838.944 427.746 836.443L427.055 836.774L429.404 838.376L429.322 839.232C427.932 840.221 426.529 841.192 425.113 842.143C428.971 843.069 432.402 843.367 435.829 840.866C437.762 839.455 446.873 833 447.496 831.573C447.278 831.416 444.592 831.225 444.169 831.208ZM540.909 698.566C538.821 699.371 536.968 699.808 535.575 701.471C535.135 703.273 535.066 702.415 535.809 704.131C538.037 703.696 539.674 703.645 541.345 702.191C541.936 700.28 541.752 700.886 540.909 698.566ZM222.479 840.473C235.602 847.226 259.464 860.933 273.838 861.808C277.572 861.895 278.796 862.062 282.468 862.802C289.935 863.73 292.844 863.9 300.251 862.83C296.006 862.233 288.916 861.749 285.087 860.511C284.807 858.882 286.965 859.644 287.716 857.996C285.913 857.877 281.542 857.479 280.006 857.726L279.508 859.272C273.137 859.941 253.667 853.443 248.107 849.904L248.55 849.031C249.858 849.027 251.066 848.985 252.372 848.928L252.728 848.479C248.806 845.746 228.382 841.511 222.479 840.473ZM838.214 640.607C836.994 641.426 835.771 641.961 835.362 643.272C836.861 643.799 836.082 643.69 837.799 643.399C839.098 642.632 840.543 642.105 841.063 640.949C839.668 640.61 839.643 640.59 838.214 640.607ZM182.599 607.841L181.919 607.095L180.444 607.249L180.226 607.881C181.315 607.929 181.548 608.008 182.599 607.841ZM838.619 524.446C836.886 526.917 835.921 528.069 834.986 530.948L835.19 531.938L835.829 532.087C837.559 530.136 839.777 528.024 839.839 525.371C839.346 524.94 839.187 524.706 838.619 524.446ZM240.888 827.174L243.375 827.774L244.244 827.107C244.318 823.567 242.21 821.065 238.503 821.348C236.205 821.671 235.187 821.404 233.682 822.749C234.9 824.847 238.544 826.164 240.888 827.174ZM114.902 604.762C115.088 607.328 114.681 607.169 115.93 608.975C117.372 609.522 117.397 609.616 118.998 609.603C119.443 606.449 117.446 606.042 114.902 604.762ZM473.968 767.12C473.224 762.255 469.255 748.604 464.66 746.2C464.115 751.545 467.618 766.179 473.968 767.12ZM698.153 614.604L698.359 609.297C696.212 608.173 692.675 606.172 690.58 605.244C691.963 608.953 694.086 611.63 696.953 614.306L698.153 614.604ZM772.057 696.966C769.92 695.648 767.779 694.259 765.516 693.18C764.63 695.076 762.552 698.916 762.685 700.736C764.234 701.277 765.612 700.214 767.081 699.415L772.057 696.966ZM659.599 184.448C657.682 185.884 657.263 186.112 656.178 188.217L656.768 188.712L658.497 188.136C659.817 187.329 662.303 186.119 662.799 184.84C661.426 184.195 661.086 184.327 659.599 184.448ZM607.08 776.768C610.453 778.741 612.371 780.072 616.376 780.206C613.87 776.94 611.114 776.417 607.08 776.768ZM839.186 555.594C840.716 554.057 841.252 554.115 841.286 552.551L840.062 552.003L838.29 554.735L838.558 555.506L839.186 555.594ZM855.616 355.805C854.116 357.391 853.658 357.306 853.437 359.022C854.349 359.695 853.989 359.541 855.055 359.874C856.108 358.292 856.911 357.718 856.828 356.117L855.616 355.805ZM666.222 184.023C667.677 183.232 669.676 182.462 670.282 181.05L669.771 180.499C667.798 181.254 666.925 181.353 665.704 182.946C665.926 183.592 665.826 183.673 666.222 184.023ZM804.287 651.976C807.091 650.398 815.072 645.786 814.397 642.268C811.133 644.852 806.919 647.939 804.242 651.011L804.287 651.976ZM691.199 555.682C689.022 558.232 686.819 560.668 686.271 564.074L687.162 564.983C689.48 562.325 691.102 560.101 691.607 556.488L691.199 555.682ZM758.796 118.142C761.327 116.496 764.18 114.952 765.272 112.092L764.865 111.355C761.594 112.413 758.19 113.781 758.426 117.718L758.796 118.142ZM169.226 422.88L163.751 425.097C161.825 427.848 158.754 431.757 158.985 435.225L159.792 435.877C161.798 435.605 162.066 435.163 163.714 433.815C165.554 431.93 171.432 428.134 171.995 427.469C174.007 425.09 185.509 405.606 185.458 404.469C184.035 403.586 181.896 403.786 180.136 403.75C176.889 410.485 170.65 412.667 169.226 422.88ZM860.078 679.215C862.157 679.813 864.169 680.387 866.228 681.06C870.032 678.747 878.315 674.365 880.392 670.809C880.203 667.814 877.343 667.277 874.699 667.076C866.241 671.182 866.223 673.09 856.856 675L852.472 680.677L860.078 679.215ZM598.719 772.669L596.977 774.19L597.274 774.975C599.48 775.713 600.606 775.807 602.874 776.12L604.092 775.384L604.138 774.391C602.4 773.112 600.903 772.888 598.719 772.669ZM150.393 603.311C150.18 605.409 150.056 605.633 150.813 607.519C152.625 608.735 152.481 608.505 155.072 608.439C154.675 605.584 155.172 606.052 153.584 604.195C152.388 603.821 151.634 603.558 150.393 603.311ZM328.483 854.778C327.086 853.196 316.987 849.74 314.514 849.049C311.512 849.808 309.074 850.278 305.891 850.274C305.34 850.927 304.865 851.489 304.467 851.96C304.595 855.729 306.514 853.462 305.151 858.149C308.4 861.297 319.796 862.814 324.291 862.211C325.665 860.83 327.838 858.971 328.172 857.064L328.483 854.778ZM484.97 775.53L482.877 776.54L482.637 777.74C483.77 779.379 483.889 779.401 485.647 780.437C488.082 779.298 487.351 780.012 488.577 777.856C488.288 776.132 488.673 776.832 487.428 775.66L484.97 775.53ZM765.766 429.607C761.617 434.346 758.554 430.971 759.622 437.296C762.82 435.653 764.628 435.079 765.925 431.648C765.897 431.18 765.86 429.998 765.766 429.607ZM331.732 828.383C337.394 829.137 338.961 828.859 344.575 828.458L345.243 828.723L345.345 827.97C341.847 824.829 335.295 829.154 331.052 824.089C329.707 825.833 329.512 826.676 327.672 827.403C324.781 826.82 322.809 823.465 321.297 823.152C318.03 822.475 318.219 824.463 314.043 822.236L312.42 827.003C314.924 828.405 319.434 827.686 320.007 828.698C320.462 829.503 320.231 829.841 321.93 831.164C325.597 831.805 328.454 829.967 331.732 828.383ZM159.383 414.475C157.296 415.921 153.851 417.805 152.954 419.871C153.399 420.291 153.885 420.775 154.349 421.162L156.169 421.454C158.006 420.061 160.275 416.786 159.383 414.475ZM495.885 830.051C497.177 827.939 498.676 825.596 499.877 823.456C496.269 822.749 493.133 822.312 490.52 819.549C489.774 816.815 491.068 816.191 493.016 814.253C492.683 813.997 487.591 813.892 485.241 812.879C483.376 816.805 475.822 829.337 480.605 832.299C483.144 832.233 489.294 832.659 490.901 831.538C490.481 828.896 489.677 826.428 492.426 824.867C493.564 826.566 494.794 828.333 495.885 830.051ZM289.754 843.72C290.203 850.202 293.56 853.716 300.502 853.047L299.937 853.226L301.021 853.071L300.271 852.763C299.879 850.541 300.26 850.169 301.259 848.145C300.128 846.778 291.913 844.263 289.754 843.72ZM841.524 627.222L827.884 630.841L832.075 635.058C835.264 634.14 841.427 632.642 843.628 630.442C843.533 629.121 843.076 628.538 842.436 627.387L841.524 627.222ZM737.062 510.953C735.11 513.816 731.459 520.146 732.522 523.666C734.839 523.612 735.112 522.497 736.193 520.559C738.234 517.575 742.925 516.826 743.525 513.619C742.006 511.257 739.698 511.362 737.062 510.953ZM837.383 538.756C832.279 544.832 827.035 550.137 821.303 555.58C819.668 557.133 820.986 560.728 821.536 562.619C824.377 559.432 837.962 542.443 837.383 538.756ZM717.279 487.532C715.759 488.784 714.206 489.961 712.896 491.423C714.512 496.124 715.947 499.243 718.03 503.718C721.695 500.641 720.652 492.541 720.294 488.055C719.019 487.454 718.684 487.564 717.279 487.532ZM820.946 581.729C821.398 586.294 822.423 589.294 824.027 593.608C821.703 595.896 819.493 597.75 818.436 600.9L820.485 602.129C821.49 601.603 825.236 594.063 825.675 592.618C827.451 586.773 843.76 566.624 842.785 561.806C835.511 568.151 828.527 575.127 820.946 581.729ZM93.5431 601.725C89.0527 607.519 89.3175 612.727 90.8552 619.581L91.5287 620.042L92.1804 619.416C96.4435 613.743 98.2761 609.254 96.4575 602.077C95.25 601.482 94.897 601.643 93.5431 601.725ZM707.959 495.172C705.861 500.209 710.35 503.193 703.856 506.516C703.396 506.754 702.933 506.986 702.467 507.211C704.199 511.187 705.571 514.242 707.633 518.097L708.283 518.262C710.023 512.883 714.139 498.356 707.959 495.172ZM876.121 695.218C872.998 699.43 864.635 703.035 863.641 706.796C865.425 707.923 867.12 707.176 869.086 706.631C872.498 704.927 883.303 700.391 881.183 695.87C879.41 694.892 878.166 695.152 876.121 695.218ZM696.777 521.574L694.218 522.791C693.168 525.776 693.73 529.05 693.142 532.143C693.027 532.75 690.728 536.303 690.73 536.308C692.545 540.346 692.507 541.884 691.861 546.243C695.248 544.51 695.204 544.138 696.554 540.075C698.089 535.458 699.493 527.203 698.127 522.479L696.777 521.574ZM927.691 75.6647C924.933 86.8821 931.627 90.3776 941.759 89.3667C940.507 87.3484 940.301 87.1668 938.141 86.1786C934.185 79.7395 939.12 76.4808 927.691 75.6647ZM873.055 546.177C872.183 548.05 872.185 548.111 872.535 550.1C875.33 554.765 886.771 555.879 894.555 561.478C894.518 555.045 880.465 545.945 874.123 546.119C873.767 546.13 873.411 546.15 873.055 546.177ZM253.416 567.32C256.244 572.078 261.086 579.691 262.944 584.655C268.935 585.279 272.626 585.539 278.695 585.526C275.279 583.382 272.532 581.626 269.308 579.231C265.145 576.138 257.785 569.315 253.416 567.32ZM901.851 625.971C896.674 632.953 893.634 637.747 887.126 643.456C888.283 644.634 889.514 645.832 890.566 647.096C892.239 648.84 891.59 648.696 893.53 648.977C898.791 646.879 902.408 630.412 901.851 625.971ZM879.382 614.243C873.6 617.491 867.573 623.916 865.268 630.279C868.127 630.663 871.548 631.026 874.296 631.725C874.193 633.83 873.761 636.38 874.73 638.076C877.049 636.017 879.519 617.88 879.382 614.243ZM557.741 839.965C554.824 840.326 540.402 843.233 537.96 844.501L537.892 845.082C541.017 846.289 550.434 846.88 553.635 846.234C556.981 845.838 570.059 844.688 572.321 843.932L572.738 843.302L570.021 842.913C569.856 841.664 570.229 841.086 570.704 839.918C568.243 839.541 560.365 839.7 557.741 839.965ZM521.276 768.612C517.331 768.721 503.444 768.673 500.926 771.338C501.313 772.815 501.467 773.243 502.058 774.656C501.361 777.168 499.911 777.149 498.319 779.4C499.384 780.553 499.594 780.739 500.843 781.695C503.296 781.972 504.919 782.416 507.183 781.528C508 780.306 509.598 776.487 509.879 776.229C513.605 772.817 519.077 772.172 523.361 769.042L522.94 768.559L521.276 768.612ZM597.544 703.369C585.446 710.394 571.419 719.321 558.518 724.211C555.922 725.195 552.068 725.827 550.011 727.442L550.05 728.028L551.719 728.35C553.331 727.932 562.513 724.87 562.547 724.874C570.971 726.039 568.732 723.466 573.929 719.771C578.136 716.781 586.576 713.305 591.344 710.726C592.075 710.4 594.727 710.717 595.373 710.797C596.568 709.394 598.88 705.452 598.754 703.629L597.544 703.369ZM810.808 601.602C805.832 605.703 802.183 613.628 801.719 619.992C801.548 622.326 801.162 633.902 801.994 635.79L802.515 635.403C805.189 629.829 813.393 607.663 812.428 602.783C811.446 601.742 812.014 601.996 810.808 601.602ZM527.093 796.001C518.969 798.002 512.347 798.689 504.057 799.671C499.33 800.231 495.635 801.497 490.659 801.483C489.426 803.499 488.167 805.623 486.893 807.6L498.923 805.497C513.686 802.552 525.655 800.795 540.854 802.058C538.079 800.68 529.71 796.243 527.093 796.001ZM1018.96 132.157C1018.03 133.565 1016.66 135.498 1017.27 137.231C1020.38 146.016 1028.43 156.298 1037.03 159.787C1036.43 156.903 1035.1 147.776 1033.02 146.355C1030.55 145.971 1031.2 146.452 1029.99 144.862C1029.54 142.877 1029.67 142.758 1030.38 140.764C1029.06 138.071 1027.01 141.615 1026.78 135.793C1025.18 133.478 1021.76 132.943 1018.96 132.157ZM740.461 525.289C731.66 527.753 732.794 530.622 727.843 537.673C722.5 545.281 711.843 557.512 710.017 566.691L711.342 566.425C720.376 560.489 736.856 536.286 741.884 526.358L741.832 525.446L740.461 525.289ZM845.088 598.282C840.363 604.127 835.241 613.7 832.066 620.639L832.415 621.315C835.88 621.511 842.295 620.175 846.368 619.861C848.321 621.789 849.823 624.633 851.256 627.02C850.895 622.214 849.113 616.939 853.982 614.898C853.984 613.464 846.232 599.54 845.088 598.282ZM579.176 669.025C578.766 673.432 578.942 673.914 575.917 676.963C572.045 680.864 548.855 692.559 547.78 695.601C549.124 696.732 549.247 696.707 551.012 697.093C554.682 695.817 556.731 693.963 559.903 692.508C572.991 686.58 584.283 679.917 597.471 674.338C591.412 672.432 585.313 670.66 579.176 669.025Z"/><path fill="white" transform="scale(1.30469 1.30469)" d="M309.801 892.264C311.34 892.588 311.719 892.454 312.86 893.358C310.98 893.691 309.64 893.842 307.735 894L305.621 893.48L309.325 893.097L309.801 892.264Z"/><path fill="white" transform="scale(1.30469 1.30469)" d="M284.958 891.229C288.027 890.469 290.089 889.659 292.906 890.985L292.672 891.915C294.871 894.53 302.475 894.011 305.621 893.48L307.735 894L308.236 894.597C310.419 894.697 312.149 894.246 313.621 896L291.548 896C288.796 894.295 287.475 893.285 284.958 891.229Z"/><path fill="white" transform="scale(1.30469 1.30469)" d="M1058.5 226.895C1059.74 228.961 1060.07 230.449 1058.71 232.613L1057.57 232.78L1056.17 231.475C1056.57 230.178 1057.81 228.145 1058.5 226.895Z"/><path fill="white" transform="scale(1.30469 1.30469)" d="M772.509 175.104C786.896 173.356 783.384 177.081 793.635 184.502C796.181 186.345 802.295 187.175 804.925 188.557C816.315 194.542 824.441 205.249 829.124 216.886C834.916 231.277 836.988 246.663 830.442 261.055C828.134 266.129 824.763 270.804 822.654 276.007L822.427 276.578C822.878 279.657 823.2 282.997 823.561 286.108C826.237 283.211 829.613 281.315 832.893 278.693C834.727 278.699 834.531 278.421 835.874 279.227C836.267 285.529 814.361 301.199 809.093 306.505C800.58 306.436 806.871 307.181 801.121 312.66L800.573 313.174C798.257 312.906 796.271 313.484 794.953 311.467C795.654 306.792 804.248 303.781 805.74 299.385C801.648 297.013 764.187 332.477 756.263 335.502C740.654 341.46 726.198 348.366 709.143 348.231C705.788 347.929 699.911 347.335 697.398 345.074C696.695 343.324 696.709 344.174 697.28 342.437C701.162 339.449 721.937 340.838 733.4 335.434L734.021 335.136C726.921 334.014 710.116 335.6 712.763 323.725C713.633 319.822 719.38 317.034 722.666 315.316C717.525 310.32 711.1 308.135 706.043 301.862C700.108 294.5 700.953 285.703 693.747 279.292C687.146 273.419 690.608 263.079 687.762 258.2C681.185 246.924 673.694 238.146 675.665 223.925C675.952 221.833 676.318 221.216 678.062 219.934L679.394 220.253C682.69 223.746 680.726 229.555 682.056 234.722C683.727 241.278 686.313 247.566 689.737 253.401C694.984 233.787 704.342 223.916 712.305 207.044C718.267 205.046 722.124 200.819 726.491 196.233C735.811 186.45 748.562 178.574 762.109 176.626C765.648 176.117 769.023 175.663 772.509 175.104ZM757.28 189.252C749.204 192.112 739.283 197.639 733.273 203.773C729.364 207.764 726.329 212.591 722.064 216.322C725.163 222.13 724.553 229.236 726.019 235.96C726.756 239.34 730.548 250.092 730.069 251.859C728.436 252.683 727.831 252.479 725.919 252.381C721.123 250.181 721.103 242.413 719.14 237.802C717.961 241.295 716.608 245.054 715.545 248.556C714.651 254.069 713.121 273.222 715.52 278.063C718.314 279.905 722.131 278.975 725.421 278.559C725.696 260.958 735.436 246.841 745.503 233.199C754.248 221.347 744.257 220.505 760.63 217.144C762.003 215.874 766.809 211.191 767.878 210.528C773.468 207.063 787.922 207.471 794.774 207.54C792.582 195.917 797.69 200.85 804.715 197.523C801.539 193.944 798.868 196.865 794.796 196.679C792.989 196.596 790.714 194.274 788.758 194.137C783.48 193.312 779.691 196.93 775.094 194.17C773.297 190.751 775.861 189.23 774.071 188.34C767.16 191.051 767.601 191.396 761.869 195.283C755.174 199.822 744.366 212.759 737.06 213.635C735.471 212.917 735.971 213.129 735.002 211.104C735.192 209.206 735.337 208.763 737.086 207.375C743.262 202.475 752.398 195.282 757.28 189.252ZM742.355 300.151C743.626 300.687 747.957 302.504 749.484 302.677C752.354 303.003 767.107 305.247 768.929 303.637C773.956 299.192 777.027 300.013 781.968 296.597C796.314 285.103 808.421 269.913 816.532 253.43L810.593 250.991C804.604 261.565 799.835 264.989 789.923 271.364C783.274 275.64 779.655 279.695 771.699 282.802C758.134 288.099 745.824 294.763 730.828 295.382C734.607 296.951 738.562 298.674 742.355 300.151ZM809.305 217.234C807.708 217.783 806.786 217.75 806.03 218.854C808.142 219.439 809.429 219.616 811.577 219.924L812.832 220.381L813.416 219.612C813.148 217.899 813.507 218.629 812.262 217.369C810.898 217.18 810.729 217.121 809.305 217.234ZM703.174 276.455C703 280.707 703.564 288.864 708.111 290.648C706.657 286.843 705.21 277.968 703.174 276.455ZM819.187 234.237C818.445 237.932 816.668 243.217 816.291 245.872C817.262 246.782 817.417 246.567 818.9 246.929C820.625 244.751 822.429 236.564 819.187 234.237ZM724.03 286.257C728.389 290.275 731.179 289.684 736.768 288.984C734.643 285.235 728.067 286.187 724.03 286.257ZM727.503 318.512C726.106 319.766 720.498 324.121 720.122 325.034C722.557 328.549 736.47 326.182 740.561 325.385C744.146 324.071 753.304 321.191 755.494 318.543C754.291 317.316 748.575 317.891 746.509 317.843C743.416 317.772 738.452 316.83 735.576 317.431L727.503 318.512ZM718.028 290.917C718.951 302.008 722.491 304.299 732.927 306.204C729.763 302.605 726.492 299.642 723.183 296.213C721.128 294.083 720.907 291.997 718.028 290.917Z"/><path fill="white" transform="scale(1.30469 1.30469)" d="M703.174 276.455C705.21 277.968 706.657 286.843 708.111 290.648C703.564 288.864 703 280.707 703.174 276.455Z"/><path fill="white" transform="scale(1.30469 1.30469)" d="M299.086 394.243C301.427 394.4 302.01 394.389 303.014 396.571C302.156 401.448 292.061 406.876 288.393 412.717C277.534 430.008 275.219 453.984 275.149 473.98C275.141 476.33 278.555 482.579 279.061 486.186C280.87 499.074 283.029 518.027 277.438 530.184C276.861 531.437 274.676 531.844 273.403 531.869C267.192 531.987 264.459 533.562 259.395 529.281C256.316 525.777 250.832 519.402 249.787 515.006C245.783 497.076 246.097 475.189 255.011 458.772C258.568 452.22 262.94 450.449 269.224 454.407C270.96 436.868 272.357 430.563 278.988 413.994C282.715 404.682 290.135 398.274 299.086 394.243ZM261.782 522.301C265.545 524.943 266.536 525.15 270.839 526.726C267.02 511.821 266.973 496.35 267.53 481.139C267.793 473.928 266.795 468.051 268.137 460.537C265.327 460.631 263.936 460.337 261.936 462.527C250.269 475.307 251.416 509.836 261.782 522.301Z"/><path fill="white" transform="scale(1.30469 1.30469)" d="M509.052 265.952L511.573 266.374C513.18 267.679 512.745 266.869 513.025 268.825C512.319 271.195 510.903 272.35 509.197 274.11C512.611 279.783 531.032 299.365 522.735 304.371C521.91 304.33 521.045 304.486 520.665 303.577C517.159 295.192 513.975 290.927 507.786 284.194C502.614 295.758 495.314 308.826 484.115 314.798C465.949 324.485 446.468 318.677 428.77 311.663C422.895 309.335 414.395 313.226 408.91 316.545C402.109 320.661 393.583 330.667 390.993 338.52C388.338 351.946 386.977 362.537 373.991 369.889C372.169 370.92 370.984 371.539 368.851 370.927C364.23 365.861 369.994 355.846 373.243 351.288C375.168 348.209 376.889 344.619 378.546 341.357C372.982 345.817 367.937 351.029 362.813 355.938C359.003 359.59 352.961 372.382 347.383 370.901C345.124 367.008 351.076 359.489 353.418 356.518C360.03 348.13 367.374 339.119 376.712 333.694C377.725 333.106 383.199 332.502 384.581 332.332C389.868 327.135 392.959 319.656 400.705 313.234C433.157 286.333 441.685 323.055 476.656 309.661C485.347 306.333 492.767 296.085 498.456 288.766C498.363 288.886 502.916 276.599 503.709 274.743C501.975 273.311 500.039 273.167 499.19 270.671C500.889 267.265 505.021 269.278 509.052 265.952Z"/><path fill="white" transform="scale(1.30469 1.30469)" d="M364.241 386.24C365.863 386.853 365.834 386.979 366.98 388.21C367.333 389.65 367.681 391.551 366.539 392.787C348.545 412.249 324.489 462.569 338.412 488.952C340.623 488.211 344.191 486.435 346.411 485.405C346.53 478.776 346.021 471.731 346.261 465.15C346.913 449.422 350.286 434.899 357.187 420.697C361.91 410.324 367.895 407.167 371.539 420.521C372.714 424.828 373.411 431.055 371.075 435.105C369.344 436.13 370.253 435.986 368.247 435.476C365.726 432.833 366.01 424.796 365.691 420.759C363.099 424.476 361.802 427.627 360.206 431.824C354.875 442.609 352.058 461.114 352.858 473.058C352.956 474.522 352.931 477.334 353.616 478.523C359.66 478.932 354.71 482.75 354.949 486.701C355.277 492.135 357.707 497.538 359.805 502.51C362.009 502.829 366.033 503.071 367.503 504.472C368.265 508.385 363.818 511.634 360.303 510.154C354.173 507.573 351.055 498.478 348.479 492.739C318.405 510.712 328.389 450.924 333.074 438.604C338.595 424.084 349.817 393.8 364.241 386.24Z"/><path fill="white" transform="scale(1.30469 1.30469)" d="M484.71 347.295C493.682 349.871 484.123 360.626 480.819 364.457C470.669 376.224 421.908 428.856 435.148 443.252C442.675 445.198 457.846 425.64 464.181 428.417L464.73 429.837C464.396 432.059 464.623 431.268 463.154 433.181C458.926 437.153 439.412 457.574 432.092 450.515C423.935 442.649 429.315 421.32 434.432 412.445C448.169 388.62 467.025 368.263 484.71 347.295Z"/><path fill="white" transform="scale(1.30469 1.30469)" d="M946.298 172.179C952.118 173.148 951.525 175.961 952.162 181.283C949.186 188.064 939.924 201.75 935.322 208.237C934.481 209.422 928.396 213.466 926.686 214.633C921.933 215.09 912.7 215.841 911.35 209.803L912.122 208.653C915.48 206.711 917.705 207.663 921.628 208.372L913.615 204.684C905.993 200.256 904.52 187.162 912.054 184.781C916.261 186.815 912.558 191.487 914.413 195.07C917.967 201.712 925.987 200.374 931.587 197.414C938.576 193.719 942.54 187.454 944.881 180.156C943.249 177.858 942.028 176.778 942.239 174.243C943.551 172.764 944.297 172.762 946.298 172.179Z"/><path fill="white" transform="scale(1.30469 1.30469)" d="M936.379 147.275C945.861 148.695 942.701 157.523 939.75 163.659C935.885 171.693 930.649 180.152 921.864 183.291C914.304 181.739 914.204 176.282 916.758 170.123C920.474 161.161 927.278 151.209 936.379 147.275Z"/><path fill="white" transform="scale(1.30469 1.30469)" d="M904.57 137.641C905.984 138.114 908.022 138.76 907.446 140.718C906.569 143.186 904.06 147.393 902.388 149.463C896.854 156.316 894.85 167.567 887.943 172.804L886.697 172.953C884.574 169.188 889.234 159.732 891.494 156.471C895.482 150.717 898.491 141.101 904.57 137.641Z"/><path fill="white" transform="scale(1.30469 1.30469)" d="M752.663 154.021C759.81 152.94 784.302 148.511 787.867 156.141C787.661 158.091 787.612 158.141 786.367 159.723L785.241 160.207C784.064 159.695 779.052 157.489 778.106 157.402C770.601 156.705 760.649 159.388 753.238 160.454C752.448 157.68 752.199 156.908 752.663 154.021Z"/><path fill="white" transform="scale(1.30469 1.30469)" d="M610.725 479.518C617.52 480.567 619.626 485.342 623.325 490.561C623.451 494.255 624.05 500.54 622.174 503.528C620.281 503.778 620.047 503.934 618.474 503.055C615.329 499.54 615.854 493.743 614.605 488.3C612.72 486.851 611.537 486.141 610.203 484.155C609.636 482.12 610.01 481.641 610.725 479.518Z"/><path fill="white" transform="scale(1.30469 1.30469)" d="M729.393 161.461C733.319 157.642 747.13 154.942 752.663 154.021C752.199 156.908 752.448 157.68 753.238 160.454C743.76 161.748 739.421 164.407 730.358 167.311C731.103 164.053 731.711 163.642 729.393 161.461Z"/><path fill="white" transform="scale(1.30469 1.30469)" d="M730.358 167.311C726.579 169.768 720.866 174.483 716.143 173.647L715.581 172.825C716.312 167.877 725.331 163.718 729.393 161.461C731.711 163.642 731.103 164.053 730.358 167.311Z"/><path fill="white" transform="scale(1.30469 1.30469)" d="M715.002 183.653C710.354 184.399 702.624 190.142 699.579 188.348C699.505 187.464 699.265 186.354 699.626 185.649C701.297 182.388 711 178.345 714.143 177.073C713.824 180.01 714.209 180.899 715.002 183.653Z"/><path fill="white" transform="scale(1.30469 1.30469)" d="M487.567 268.406C490.56 268.675 497.813 268.779 497.705 272.984C495.781 274.646 493.326 274.577 490.845 274.723L490.03 276.044C487.504 277.312 484.38 275.976 482.602 273.923C481.715 270.275 484.531 269.523 487.567 268.406Z"/><path fill="white" transform="scale(1.30469 1.30469)" d="M726.415 174.107L727.157 174.083C732.178 173.892 740.985 169.361 742.356 176.078C740.285 178.844 730.694 178.868 726.783 179.773L726.186 177.95C726.646 176.626 726.472 175.516 726.415 174.107Z"/><path fill="white" transform="scale(1.30469 1.30469)" d="M197.729 548.857C199.262 548.765 199.95 548.885 201.44 549.069C206.949 553.099 210.069 550.982 212.445 552.919C212.945 554.846 212.994 554.026 211.881 556.094C207.66 556.989 199.273 557.148 196.8 552.908C196.599 550.391 196.472 551.41 197.729 548.857Z"/><path fill="white" transform="scale(1.30469 1.30469)" d="M714.143 177.073C718.875 175.359 721.387 174.423 726.415 174.107C726.472 175.516 726.646 176.626 726.186 177.95L726.783 179.773C723.811 180.449 721.736 180.787 719.011 182.179C717.688 182.687 716.351 183.23 715.002 183.653C714.209 180.899 713.824 180.01 714.143 177.073Z"/><path fill="white" transform="scale(1.30469 1.30469)" d="M719.011 182.179C718.99 179.814 718.969 179.39 720.778 177.798C723.028 177.253 723.918 177.57 726.186 177.95L726.783 179.773C723.811 180.449 721.736 180.787 719.011 182.179Z"/><path fill="white" transform="scale(1.30469 1.30469)" d="M528.382 585.98C530.556 586.181 532.445 586.179 532.837 588.582C531.26 592.099 525.633 593.14 522.339 595.578C520.429 595.616 519.131 595.747 518.435 593.797C519.028 591.511 525.492 588.147 528.382 585.98Z"/><path fill="white" transform="scale(1.30469 1.30469)" d="M201.038 539.104C204.584 539.496 206.905 540.206 209.081 543.088L208.933 544.105C207.008 545.311 206.722 544.808 204.061 544.54C201.009 545.734 199.069 545.984 196.41 544.091C195.235 540.412 198.126 539.837 201.038 539.104Z"/><path fill="white" transform="scale(1.30469 1.30469)" d="M940.405 137.084C942.02 137.535 941.968 137.611 943.14 138.715C944.263 142.628 941.932 144.06 938.64 145.436C936.286 143.987 935.127 143.077 935.797 140.239C937.179 138.318 938.285 138.023 940.405 137.084Z"/><path fill="white" transform="scale(1.30469 1.30469)" d="M468.745 269.947C471.774 269.627 473.219 269.319 476.177 270.078L477.016 270.815C475.955 272.184 474.993 272.465 473.393 273.263L474.968 274.79L474.577 275.436C472.58 275.705 469.741 275.896 467.947 274.834C468.15 272.896 468.302 271.842 468.745 269.947Z"/><path fill="white" transform="scale(1.30469 1.30469)" d="M392.118 599.94C395.761 601.138 402.413 602.184 401.572 606.752C396.598 608.378 391.823 605.468 392.118 599.94Z"/><path fill="white" transform="scale(1.30469 1.30469)" d="M445.327 268.56C445.944 268.558 446.56 268.563 447.177 268.575C449.453 268.622 451.89 268.695 451.654 271.69C450.473 273.069 450.235 273.059 448.475 273.738C445.969 273.742 443.852 273.857 442.554 271.545C443.119 269.98 443.984 269.568 445.327 268.56Z"/><path fill="white" transform="scale(1.30469 1.30469)" d="M467.947 274.834C465.661 274.642 462.469 276.126 460.585 272.082L461.243 271.048C463.628 269.656 465.899 269.968 468.745 269.947C468.302 271.842 468.15 272.896 467.947 274.834Z"/><path fill="white" transform="scale(1.30469 1.30469)" d="M419.294 546.216C420.953 545.993 422.499 547.101 422.82 548.743C423.142 550.386 422.129 551.995 420.509 552.415C419.371 552.71 418.163 552.35 417.372 551.479C416.582 550.608 416.339 549.371 416.743 548.267C417.146 547.162 418.128 546.372 419.294 546.216Z"/><path fill="white" transform="scale(1.30469 1.30469)" d="M379.625 673.84C385.5 674.104 390.39 674.333 394.535 678.93C398.52 683.349 412.808 683.806 413.937 690.716C413.223 692.366 413.733 691.639 412.168 692.83C405.355 691.912 388.593 681.981 378.51 678.683L377.872 677.23C378.421 674.812 377.965 675.708 379.625 673.84Z"/><path fill="white" transform="scale(1.30469 1.30469)" d="M380.837 684.343C388.439 686.371 383.855 689.377 387.621 691.661C391.913 694.265 403.792 696.198 404.601 702.424C404.063 704.044 402.847 704.51 401.344 705.47C398.214 705.213 395.298 700.987 390.78 698.882C386.301 696.796 385.482 696.592 380.744 695.153C380.088 692.11 378.468 689.087 378.539 686.398C378.558 685.689 380.059 684.9 380.837 684.343Z"/><path fill="white" transform="scale(1.30469 1.30469)" d="M405.943 712.513C408.163 711.403 410.78 710.227 412.643 708.654C412.244 707.204 412.09 707.05 412.317 705.538C416.574 702.347 420.861 705.999 418.863 710.96C417.155 715.201 415.588 715.321 411.703 717.229C408.937 716.549 405.827 715.442 405.063 712.546L405.943 712.513Z"/><path fill="white" transform="scale(1.30469 1.30469)" d="M405.063 712.546C403.543 709.964 401.786 707.147 398.114 709.044C397.482 710.677 397.598 710.017 398.132 711.963C400.046 713.324 401.449 713.574 403.687 714.241C401.237 715.051 399.238 714.767 396.937 713.652C393.274 709.132 400.469 705.447 404.819 709.272C405.405 710.606 405.632 711.043 405.943 712.513L405.063 712.546Z"/><path fill="white" transform="scale(1.30469 1.30469)" d="M655.91 506.202C656.924 507.19 656.812 507.39 657.038 508.785C656.363 510.648 655.912 510.778 654.24 512.034C653.014 510.954 653.085 511.045 652.464 509.532C653.296 507.551 653.943 507.581 655.91 506.202Z"/><path fill="white" transform="scale(1.30469 1.30469)" d="M673.276 763.639C675.228 763.617 675.576 763.678 677.504 764.067C679.07 765.518 678.6 764.82 679.005 767.236C677.105 767.25 676.746 767.211 674.876 766.844C673.286 765.445 673.781 766.072 673.276 763.639Z"/><path fill="white" transform="scale(1.30469 1.30469)" d="M642.928 610.483C644.725 611.355 645.195 612.127 645.784 613.923C645.409 616.244 645.815 615.369 644.099 617.191C643.119 616.73 643.196 616.745 642.581 615.84C643.179 613.528 643.285 612.842 642.928 610.483Z"/><path fill="white" transform="scale(1.30469 1.30469)" d="M685.127 742.807L686.539 742.406L687.123 743.201L685.966 743.534L685.127 742.807Z"/><path fill="white" transform="scale(1.30469 1.30469)" d="M531.663 820.31C533.478 820.405 533.443 820.323 534.997 821.177C536.277 822.706 536.165 823.674 536.432 825.758C533.775 825.7 534.395 826.085 532.434 824.84C531.449 822.986 531.621 822.505 531.663 820.31Z"/><path fill="white" transform="scale(1.30469 1.30469)" d="M581.03 608.184C581.056 605.003 579.747 601.25 580.22 598.691C581.536 597.951 581.273 598.221 583.114 598.407C586.375 601.392 595.519 627.576 595.174 632.072C593.32 633.103 593.143 633.08 591.004 633.421C589.115 628.938 585.014 612.349 581.446 610.347C580.764 609.204 581.048 609.766 581.03 608.184Z"/><path fill="white" transform="scale(1.30469 1.30469)" d="M197.418 619.184C197.543 616.249 197.092 616.803 198.507 614.716C202.424 612.415 209.183 614.445 213.516 615.573C216.087 616.257 218.632 617.037 221.146 617.911C218.371 620.151 218.77 621.44 218.076 625.437C211.271 622.791 210.659 622.489 203.519 622.289C201.008 620.225 200.422 620.043 197.418 619.184Z"/><path fill="white" transform="scale(1.30469 1.30469)" d="M108.761 650.021C108.155 648.197 107.656 647.471 108.038 645.813C109.545 645.645 109.646 645.736 110.96 644.897C112.038 642.227 110.227 644.339 109.821 640.796C111.675 637.069 116.56 630.418 120.536 628.824L120.911 629.206C119.695 630.339 118.893 630.655 118.599 631.971C120.051 632.68 120.556 632.603 122.141 632.685L122.231 633.456C121.31 634.269 116.913 638.02 116.504 638.777C113.618 644.115 118.672 651.187 108.761 650.021Z"/><path fill="white" transform="scale(1.30469 1.30469)" d="M169.736 549.297C167.076 547.511 166.21 545.413 167.769 542.491C174.544 538.312 175.146 547.887 177.795 549.848L178.773 549.879C180.6 547.593 182.1 544.923 185.498 546.124L185.699 546.894C183.652 549.875 181.95 551.706 180.121 554.9C177.14 552.87 175.752 551.943 172.516 550.431C171.268 549.697 171.202 549.564 169.736 549.297Z"/><path fill="white" transform="scale(1.30469 1.30469)" d="M1014.04 185.82C1014.4 187.036 1014.78 188.224 1015.04 189.463C1013.86 193.185 1007.87 208.937 1005.03 210.636C1004.75 210.252 1004.46 209.868 1004.18 209.485L1003.93 209.108C1002.92 209.894 1003.34 209.702 1002.14 210.086C1001.99 207.444 1011.53 189.332 1014.04 185.82Z"/><path fill="white" transform="scale(1.30469 1.30469)" d="M186.458 619.531C186.841 618.94 187.277 618.49 187.741 617.95C190.494 617.658 194.803 617.557 197.098 619.266C196.713 621.945 197.339 622.957 198.345 625.334L197.95 626.148C196.014 626.249 195.865 626.22 193.96 625.774C191.98 625.178 189.765 623.904 187.255 623.135L186.458 619.531Z"/><path fill="white" transform="scale(1.30469 1.30469)" d="M404.624 606.813C409.388 605.162 414.25 607.871 416.775 611.971L416.815 613.681C413.015 615.291 407.155 612.488 404.838 609.275C404.579 607.903 404.528 608.162 404.624 606.813Z"/><path fill="white" transform="scale(1.30469 1.30469)" d="M275.131 639.187C276.654 639.216 277.009 639.086 278.426 638.503C281.687 640.006 282.078 643.002 281.773 646.303L281.222 647.018C280.2 647.084 277.803 647.17 276.91 647.321C277.245 646.695 277.16 646.475 277.243 645.692L275.825 644.417L275.834 643.188L277.525 641.96C276.876 640.193 276.829 640.583 275.131 639.187Z"/><path fill="white" transform="scale(1.30469 1.30469)" d="M757.959 462.806L759.872 461.728C760.298 462.473 761.424 463.104 762.178 463.722L762.325 465.14C757.947 467.842 754.097 471.715 750.325 475.248C752.988 470.446 754.745 467.272 757.959 462.806Z"/><path fill="white" transform="scale(1.30469 1.30469)" d="M1040.88 198.82C1039.92 201.113 1038.36 205.726 1035.24 204.198L1034.72 202.517C1035.11 199.094 1036.71 197.764 1039.07 195.405L1040.88 198.82Z"/><path fill="white" transform="scale(1.30469 1.30469)" d="M214.93 639.09L219.461 638.845L219.594 640.145C218.867 641.584 218.068 642.317 218.791 643.968L220.63 645.849C218.491 645.917 216.086 646.229 214.184 645.455C213.316 643.433 214.029 642.674 214.83 640.197L214.93 639.09Z"/><path fill="white" transform="scale(1.30469 1.30469)" d="M225.214 402.441L228.625 399.138C230.421 400.429 231.201 400.727 232.056 402.654C232.018 404.872 232.363 403.915 231.02 405.641C227.501 406.726 226.405 405.848 225.214 402.441Z"/><path fill="white" transform="scale(1.30469 1.30469)" d="M627.922 665.483C629.639 664.04 632.43 661.756 634.506 663.836C633.858 666.54 629.299 669.555 626.736 669.666L625.595 668.365L627.922 665.483Z"/><path fill="white" transform="scale(1.30469 1.30469)" d="M467.789 663.396C468.606 664.685 469.563 665.827 469.659 667.29C465.488 670.312 461.793 673.01 457.404 675.728C460.334 671.76 464.269 668.179 467.789 663.396Z"/><path fill="white" transform="scale(1.30469 1.30469)" d="M366.23 261.65C367.427 261.629 366.876 261.511 367.861 262.159C367.078 263.386 358.196 267.377 356.015 268.457C355.65 268.431 354.534 268.171 354.131 268.087L354.125 267.202C357.16 265.169 362.651 262.267 366.23 261.65Z"/><path fill="white" transform="scale(1.30469 1.30469)" d="M213.537 572.972C213.19 571.058 213.128 570.966 213.866 569.241C216.232 567.542 218.107 567.542 219.638 570.219C219.47 571.916 219.737 571.619 218.884 572.858C216.549 573.259 215.816 573.501 213.537 572.972Z"/><path fill="white" transform="scale(1.30469 1.30469)" d="M814.397 642.268C815.072 645.786 807.091 650.398 804.287 651.976L804.242 651.011C806.919 647.939 811.133 644.852 814.397 642.268Z"/><path fill="white" transform="scale(1.30469 1.30469)" d="M256.176 650.529C244.485 648.858 243.476 653.529 231.694 646.74C232.81 646.69 237.874 648.749 240.341 649.288C245.788 650.16 251.177 649.264 256.455 649.695L256.176 650.529Z"/><path fill="white" transform="scale(1.30469 1.30469)" d="M383.263 598.337C385.606 598.4 386.267 598.226 388.209 599.349L388.897 600.57C388.13 602.32 388.743 601.661 386.878 602.495C384.298 601.992 383.92 601.607 382.911 599.226L383.263 598.337Z"/><path fill="white" transform="scale(1.30469 1.30469)" d="M328.172 857.064C325.751 856.412 320.78 856.075 318.101 855.858L318.191 855.231C323.47 852.281 323.383 855.451 328.483 854.778L328.172 857.064Z"/><path fill="white" transform="scale(1.30469 1.30469)" d="M273.838 861.808C277.572 861.895 278.796 862.062 282.468 862.802C278.945 865.319 276.423 865.604 273.838 861.808Z"/><path fill="white" transform="scale(1.30469 1.30469)" d="M784.841 761.109C783.435 759.32 782.415 758.5 783.111 756.242L784.17 755.961C786.315 757.269 785.662 756.91 786.964 759.537L784.841 761.109Z"/><path fill="white" transform="scale(1.30469 1.30469)" d="M621.578 662.157C624.068 664.217 624.908 664.402 627.922 665.483L625.595 668.365C624.875 667.212 623.923 666.638 622.835 665.809L621.904 665.389L621.578 662.157Z"/><path fill="white" transform="scale(1.30469 1.30469)" d="M99.4255 708.421C101.937 710.005 103.172 711.753 103.09 714.712C101.17 713.524 100.705 713.282 99.1184 711.73C98.5088 709.695 98.493 710.57 99.4255 708.421Z"/><path fill="white" transform="scale(1.30469 1.30469)" d="M842.719 501.427C845.338 502.645 846.744 506.469 847.278 509.098C844.326 506.978 843.407 504.827 842.719 501.427Z"/><path fill="white" transform="scale(1.30469 1.30469)" d="M1014.77 181.517L1016.19 181.972C1015.49 185.066 1015.2 186.309 1015.04 189.463C1014.78 188.224 1014.4 187.036 1014.04 185.82C1014.04 184.657 1014.52 182.74 1014.77 181.517Z"/><path fill="white" transform="scale(1.30469 1.30469)" d="M120.307 709.776C120.609 711.53 120.615 711.461 120.32 713.211C118.409 712.723 116.423 712.222 115.472 710.35C116.86 710.621 118.254 710.86 119.653 711.064L120.307 709.776Z"/><path fill="white" transform="scale(1.30469 1.30469)" d="M240.341 649.288C244.528 649.168 254.178 648.674 257.984 649.481L256.455 649.695C251.177 649.264 245.788 650.16 240.341 649.288Z"/><path fill="white" transform="scale(1.30469 1.30469)" d="M302.139 661.014L304.065 661.66L303.945 662.231C302.763 662.577 301.549 662.949 300.364 663.267C299.21 662.414 299.447 662.764 298.685 661.639L302.139 661.014Z"/><path fill="white" transform="scale(1.30469 1.30469)" d="M669.771 180.499L670.282 181.05C669.676 182.462 667.677 183.232 666.222 184.023C665.826 183.673 665.926 183.592 665.704 182.946C666.925 181.353 667.798 181.254 669.771 180.499Z"/><path fill="white" transform="scale(1.30469 1.30469)" d="M143.289 773.247C145.614 772.76 145.948 772.681 148.261 773.153L148.909 773.726C147.372 774.499 145.057 774.027 143.237 773.858L143.289 773.247Z"/><path fill="white" transform="scale(1.30469 1.30469)" d="M335.158 830.382C337.782 829.989 338.771 829.373 340.082 831.724C338.188 831.977 337.387 832.269 335.659 831.641L335.158 830.382Z"/><path fill="white" transform="scale(1.30469 1.30469)" d="M222.348 638.454L224.526 638.735L224.662 639.244C222.39 639.972 221.977 640.047 219.594 640.145L219.461 638.845L222.348 638.454Z"/><path fill="white" transform="scale(1.30469 1.30469)" d="M840.062 552.003L841.286 552.551C841.252 554.115 840.716 554.057 839.186 555.594L838.558 555.506L838.29 554.735L840.062 552.003Z"/><path fill="white" transform="scale(1.30469 1.30469)" d="M193.377 632.945L193.712 634.06C190.614 633.963 188.978 633.957 185.933 633.319C188.983 633.386 190.362 633.482 193.377 632.945Z"/><path fill="white" transform="scale(1.30469 1.30469)" d="M218.791 643.968L223.749 645.24L223.443 645.647L220.63 645.849L218.791 643.968Z"/><path fill="white" transform="scale(1.30469 1.30469)" d="M185.933 633.319C189.108 632.512 190.105 632.724 193.377 632.945C190.362 633.482 188.983 633.386 185.933 633.319Z"/><path fill="white" transform="scale(1.30469 1.30469)" d="M180.444 607.249L181.919 607.095L182.599 607.841C181.548 608.008 181.315 607.929 180.226 607.881L180.444 607.249Z"/><path fill="white" transform="scale(1.30469 1.30469)" d="M724.296 98.8534C725.963 98.9635 726.747 98.8313 728.037 99.8696C728.124 101.838 727.438 102.445 726.47 104.38C724.388 104.536 725.235 104.834 723.743 103.836C723.193 101.892 723.732 100.817 724.296 98.8534Z"/><path fill="white" transform="scale(1.30469 1.30469)" d="M623.306 739.416C627.889 741.899 627.288 744.548 624.145 748.14C623.093 748.069 622.345 747.963 621.314 747.82C619.774 746.423 620.218 747.254 619.84 745.295C620.503 742.613 621.609 741.536 623.306 739.416Z"/><path fill="white" transform="scale(1.30469 1.30469)" d="M642.644 798.961C645.617 798.937 650.328 799.476 650.175 803.337C648.532 805.084 648.966 804.542 646.156 805.163L644.806 804.384C642.917 804.952 641.845 805.522 640.599 803.731L641.13 802.967L643.48 803.157L643.951 802.669L642.644 798.961Z"/><path fill="white" transform="scale(1.30469 1.30469)" d="M673.238 793.646L673.612 793.649L673.706 794.724L674.984 795.725C674.861 797.41 671.629 800.784 670.36 802.272C668.818 801.827 668.608 801.882 667.346 800.844C665.482 796.361 671.378 796.457 673.238 793.646Z"/><path fill="white" transform="scale(1.30469 1.30469)" d="M635.676 785.108C636.745 785.077 637.308 785.196 638.361 785.346C639.822 786.95 640.546 787.799 639.587 789.922L638.31 790.241C636.485 789.589 633.942 789.167 632.949 787.711C633.687 785.938 633.698 786.38 635.676 785.108Z"/><path fill="white" transform="scale(1.30469 1.30469)" d="M650.381 803.925C652.253 804.167 652.432 804.13 654.05 805.014C654.92 806.811 654.645 806.264 654.362 808.583C653.216 809.151 653.289 809.1 651.999 809.096C650.658 807.556 650.811 806.211 650.381 803.925Z"/><path fill="white" transform="scale(1.30469 1.30469)" d="M999.784 87.4477C1005.08 89.3156 1008.46 90.4352 1013.17 93.6944C1012.71 94.7223 1012.38 95.123 1012.48 96.2269C1007.7 95.0914 1000.94 94.8197 1000.58 89.0532L999.042 87.8734L999.784 87.4477Z"/><path fill="white" transform="scale(1.30469 1.30469)" d="M999.042 87.8734C994.442 85.5493 985.092 87.4319 981.915 83.4791L982.107 82.7396C988.024 78.768 994.329 85.0146 999.269 87.2236L999.784 87.4477L999.042 87.8734Z"/><path fill="white" transform="scale(1.30469 1.30469)" d="M275.127 890.162C271.215 889.943 256.299 889.168 254.022 886.961C261.696 888.152 267.884 888.556 275.582 889.288L275.127 890.162Z"/></svg>