<?xml version="1.0" encoding="utf-8" ?><svg xmlns="http://www.w3.org/2000/svg" xmlns:xlink="http://www.w3.org/1999/xlink" width="1024" height="1024" viewBox="0 0 1024 1024"><path transform="scale(5.56522 5.56522)" d="M58.1246 0L125.635 0L125.724 0.0254465C128.76 0.872268 136.09 0.952746 139.633 1.44346C164.564 4.8964 181.626 24.0863 183.087 49.0493C183.193 50.8644 183.496 56.2493 184 57.7837L184 126.65L183.972 126.737C183.555 128.057 182.702 138.597 182.279 141.3C180.044 156.458 170.779 169.67 157.29 176.936C150.398 180.566 144.049 182.234 136.335 183.002C134.42 183.193 129.572 183.585 127.956 184L56.5538 184C55.2477 183.609 49.7038 183.18 47.9014 182.992C39.9968 182.168 32.3582 180.278 25.4114 176.274C11.8047 168.432 3.94352 155.556 1.57003 140.181C1.05864 136.869 0.674807 128.63 0.026291 126.29L0 126.198L0 57.8949C0.502487 56.3166 0.862446 50.6199 1.03135 48.6181C1.70622 40.6199 3.68448 32.9031 7.60529 25.8249C15.5151 11.5455 28.5407 3.93838 44.4264 1.44796C47.0527 1.03623 56.5354 0.474157 58.0359 0.0271979L58.1246 0ZM117.313 167.273C131.542 166.995 146.871 167.36 157.468 156.108C167.948 144.979 166.813 129.77 167.33 115.573C167.457 112.065 167.432 108.442 167.449 104.911C167.546 91.4912 167.477 78.0708 167.242 64.6528C166.938 51.1427 166.885 36.7032 156.353 26.7439C152.303 22.9135 146.924 20.005 141.457 18.8702C128.965 16.2769 113.771 16.8073 100.918 16.8051C89.7884 16.8032 78.1517 16.6277 67.1439 16.8695C53.2665 17.1261 36.8294 16.795 26.765 27.63C22.6864 32.021 19.7993 37.4524 18.63 43.2882C16.5327 53.7557 16.7172 66.642 16.643 77.3375C16.5481 90.8154 16.5867 104.294 16.7588 117.771C17.0364 131.782 16.7634 146.982 27.8254 157.438C38.7414 167.757 53.7544 166.788 67.7127 167.318C71.4458 167.46 75.3252 167.417 79.087 167.433C91.829 167.512 104.572 167.459 117.313 167.273Z"/><path transform="scale(5.56522 5.56522)" d="M89.1567 44.8507C115.215 43.2754 137.617 63.1208 139.196 89.1789C140.775 115.237 120.933 137.642 94.8749 139.225C68.812 140.807 46.4017 120.96 44.8225 94.8971C43.2433 68.834 63.0934 46.4264 89.1567 44.8507ZM96.1262 122.386C112.839 120.117 124.569 104.757 122.357 88.0361C120.146 71.3152 104.827 59.5327 88.0982 61.6863C71.2877 63.8505 59.4349 79.2613 61.6572 96.0641C63.8795 112.867 79.3311 124.667 96.1262 122.386Z"/><path transform="scale(5.56522 5.56522)" d="M138.944 32.1126C144.955 30.9155 150.792 34.8403 151.951 40.8588C153.11 46.8772 149.148 52.6889 143.122 53.8099C137.15 54.9208 131.402 51.0021 130.253 45.0373C129.104 39.0724 132.987 33.299 138.944 32.1126Z"/></svg>