<?xml version="1.0" encoding="utf-8" ?><svg xmlns="http://www.w3.org/2000/svg" xmlns:xlink="http://www.w3.org/1999/xlink" width="1024" height="1024" viewBox="0 0 1024 1024"><path fill="#384D48" d="M322.154 0L699.959 0C709.26 4.67219 764.859 6.81612 778.697 8.58531C879.653 21.4924 966.257 89.0016 1000.71 185.122C1011.04 213.476 1015.36 236.321 1018.11 266.514C1019.04 276.73 1020.98 313.108 1024 321.268L1024 705.719C1021.1 714.954 1020.38 729.533 1019.33 739.318C1017.49 756.531 1016.21 773.866 1013.51 791C1000.2 872.08 949.476 943.238 877.879 983.289C841.687 1003.53 803.351 1013.51 762.455 1017.79C751.15 1018.97 722.399 1021.36 713.254 1024L313.275 1024C305.683 1021.69 278.692 1019.36 268.864 1018.25C223.101 1013.06 186.903 1005.59 146.229 983.433C69.3971 941.581 21.6591 866.678 8.96537 780.833C6.46722 764.739 5.5873 748.437 3.96546 732.258C3.06836 723.308 2.71754 711.742 0 703.255L0 320.799C2.49494 313.464 4.59243 283.645 5.49557 274.158C10.0862 225.936 18.3532 188.926 41.0046 146.153C82.2924 68.1891 157.143 22.1222 243.133 8.88666C260.451 6.31026 278.017 5.46453 295.411 3.65241C303.265 2.83418 314.858 2.38538 322.154 0ZM628.875 931.119C653.745 931 678.612 930.488 703.466 929.585C766.846 926.858 826.613 918.848 873.414 871.633C926.549 818.029 928.934 745.424 930.423 674.438C931.036 653.062 931.425 631.68 931.591 610.296L931.875 418.75C931.607 389.999 931.009 361.252 930.078 332.515C927.737 265.574 922.696 200.211 871.979 150.547C851.318 130.45 826.059 115.705 798.401 107.595C775.11 100.919 745.835 97.9494 721.75 96.0097C670.485 91.881 618.959 93.104 567.534 93.1272C509.696 92.7451 451.856 92.7904 394.019 93.2631C312.249 94.8796 213.502 88.4714 150.402 151.877C91.8688 210.693 95.1348 294.033 93.0711 371.236C92.5666 390.11 92.2745 409.471 92.3269 428.489L93.2247 638.251C93.8524 689.763 92.6264 740.209 105.443 790.623C121.671 854.459 167.859 901.701 231.757 918.374C273.983 929.393 317.052 929.74 360.526 930.722C391.863 931.636 423.212 932.06 454.562 931.992C512.668 932.253 570.775 931.961 628.875 931.119Z"/><path fill="#384D48" d="M507.79 249.216C652.811 246.884 772.339 362.408 774.948 507.424C777.556 652.44 662.26 772.188 517.249 775.073C371.847 777.966 251.705 662.29 249.09 516.883C246.474 371.476 362.378 251.554 507.79 249.216ZM523.754 682.291C617.799 675.803 688.733 594.234 682.107 500.199C675.481 406.164 593.808 335.349 499.783 342.114C405.953 348.864 335.317 430.33 341.929 524.17C348.542 618.01 429.904 688.766 523.754 682.291Z"/><path fill="#384D48" d="M779.645 177.791C813.58 174.742 843.504 199.914 846.311 233.869C849.117 267.825 823.731 297.568 789.757 300.132C756.124 302.669 726.745 277.594 723.967 243.981C721.189 210.367 746.053 180.809 779.645 177.791Z"/></svg>